<?xml version="1.0" encoding="UTF-8" standalone="no"?>
<!DOCTYPE svg PUBLIC "-//W3C//DTD SVG 1.1//EN"
 "http://www.w3.org/Graphics/SVG/1.1/DTD/svg11.dtd">
<!-- Generated by graphviz version 2.43.0 (0)
 -->
<!-- Title: LineChartMenager::adjustAxisLabels Pages: 1 -->
<svg width="545pt" height="85pt"
 viewBox="0.00 0.00 545.00 85.00" xmlns="http://www.w3.org/2000/svg" xmlns:xlink="http://www.w3.org/1999/xlink">
<g id="graph0" class="graph" transform="scale(1 1) rotate(0) translate(4 81)">
<title>LineChartMenager::adjustAxisLabels</title>
<!-- Node1 -->
<g id="Node000001" class="node">
<title>Node1</title>
<g id="a_Node000001"><a xlink:title="Dostosowuje liczbę etykiet osi X do rozmiaru wykresu.">
<polygon fill="#999999" stroke="#666666" points="537,-63.5 395,-63.5 395,-33.5 537,-33.5 537,-63.5"/>
<text text-anchor="start" x="403" y="-51.5" font-family="Helvetica,sans-Serif" font-size="10.00">LineChartMenager::adjust</text>
<text text-anchor="middle" x="466" y="-40.5" font-family="Helvetica,sans-Serif" font-size="10.00">AxisLabels</text>
</a>
</g>
</g>
<!-- Node2 -->
<g id="Node000002" class="node">
<title>Node2</title>
<g id="a_Node000002"><a xlink:href="classLineChartMenager.html#ad4b84cbb138d5ab9ffc414bf6416e24f" target="_top" xlink:title="Filtr zdarzeń do obsługi resize kontenera wykresu.">
<polygon fill="white" stroke="#666666" points="358.5,-77 194.5,-77 194.5,-58 358.5,-58 358.5,-77"/>
<text text-anchor="middle" x="276.5" y="-65" font-family="Helvetica,sans-Serif" font-size="10.00">LineChartMenager::eventFilter</text>
</a>
</g>
</g>
<!-- Node1&#45;&gt;Node2 -->
<g id="edge1_Node000001_Node000002" class="edge">
<title>Node1&#45;&gt;Node2</title>
<g id="a_edge1_Node000001_Node000002"><a xlink:title=" ">
<path fill="none" stroke="#63b8ff" d="M384.8,-56.63C376.11,-57.51 367.25,-58.41 358.55,-59.29"/>
<polygon fill="#63b8ff" stroke="#63b8ff" points="385.32,-60.09 394.92,-55.6 384.61,-53.13 385.32,-60.09"/>
</a>
</g>
</g>
<!-- Node3 -->
<g id="Node000003" class="node">
<title>Node3</title>
<g id="a_Node000003"><a xlink:href="classLineChartMenager.html#af4ae0b8f7efd7713d2e1b3faabe96977" target="_top" xlink:title="Inicjalizuje (tworzy) wykres i ustawia wszystkie parametry.">
<polygon fill="white" stroke="#666666" points="359,-40 194,-40 194,-21 359,-21 359,-40"/>
<text text-anchor="middle" x="276.5" y="-28" font-family="Helvetica,sans-Serif" font-size="10.00">LineChartMenager::setupChart</text>
</a>
</g>
</g>
<!-- Node1&#45;&gt;Node3 -->
<g id="edge2_Node000001_Node000003" class="edge">
<title>Node1&#45;&gt;Node3</title>
<g id="a_edge2_Node000001_Node000003"><a xlink:title=" ">
<path fill="none" stroke="#63b8ff" d="M384.7,-40.79C376.25,-39.98 367.65,-39.15 359.19,-38.34"/>
<polygon fill="#63b8ff" stroke="#63b8ff" points="384.63,-44.3 394.92,-41.77 385.3,-37.33 384.63,-44.3"/>
</a>
</g>
</g>
<!-- Node4 -->
<g id="Node000004" class="node">
<title>Node4</title>
<g id="a_Node000004"><a xlink:href="classLineChartMenager.html#ab1b8488eceb8d1267945658eb1ba9242" target="_top" xlink:title="Konstruktor.">
<polygon fill="white" stroke="#666666" points="158,-67.5 0,-67.5 0,-37.5 158,-37.5 158,-67.5"/>
<text text-anchor="start" x="8" y="-55.5" font-family="Helvetica,sans-Serif" font-size="10.00">LineChartMenager::LineChart</text>
<text text-anchor="middle" x="79" y="-44.5" font-family="Helvetica,sans-Serif" font-size="10.00">Menager</text>
</a>
</g>
</g>
<!-- Node3&#45;&gt;Node4 -->
<g id="edge3_Node000003_Node000004" class="edge">
<title>Node3&#45;&gt;Node4</title>
<g id="a_edge3_Node000003_Node000004"><a xlink:title=" ">
<path fill="none" stroke="#63b8ff" d="M183.69,-40.83C175.1,-41.8 166.45,-42.77 158.01,-43.72"/>
<polygon fill="#63b8ff" stroke="#63b8ff" points="184.18,-44.3 193.72,-39.7 183.39,-37.34 184.18,-44.3"/>
</a>
</g>
</g>
<!-- Node5 -->
<g id="Node000005" class="node">
<title>Node5</title>
<g id="a_Node000005"><a xlink:href="classMainWindow.html#a996c5a2b6f77944776856f08ec30858d" target="_top" xlink:title="Konstruktor klasy MainWindow.">
<polygon fill="white" stroke="#666666" points="153,-19 5,-19 5,0 153,0 153,-19"/>
<text text-anchor="middle" x="79" y="-7" font-family="Helvetica,sans-Serif" font-size="10.00">MainWindow::MainWindow</text>
</a>
</g>
</g>
<!-- Node3&#45;&gt;Node5 -->
<g id="edge4_Node000003_Node000005" class="edge">
<title>Node3&#45;&gt;Node5</title>
<g id="a_edge4_Node000003_Node000005"><a xlink:title=" ">
<path fill="none" stroke="#63b8ff" d="M183.54,-20.62C173.31,-19.52 162.99,-18.41 153.04,-17.35"/>
<polygon fill="#63b8ff" stroke="#63b8ff" points="183.41,-24.13 193.72,-21.72 184.15,-17.17 183.41,-24.13"/>
</a>
</g>
</g>
</g>
</svg>
