<?xml version="1.0" encoding="UTF-8" standalone="no"?>
<!DOCTYPE svg PUBLIC "-//W3C//DTD SVG 1.1//EN"
 "http://www.w3.org/Graphics/SVG/1.1/DTD/svg11.dtd">
<!-- Generated by graphviz version 2.43.0 (0)
 -->
<!-- Title: MainWindow::MainWindow Pages: 1 -->
<svg width="750pt" height="813pt"
 viewBox="0.00 0.00 750.00 812.90" xmlns="http://www.w3.org/2000/svg" xmlns:xlink="http://www.w3.org/1999/xlink">
<g id="graph0" class="graph" transform="scale(1 1) rotate(0) translate(4 808.9)">
<title>MainWindow::MainWindow</title>
<!-- Node1 -->
<g id="Node000001" class="node">
<title>Node1</title>
<g id="a_Node000001"><a xlink:title="Konstruktor klasy MainWindow.">
<polygon fill="#999999" stroke="#666666" points="148,-542.4 0,-542.4 0,-523.4 148,-523.4 148,-542.4"/>
<text text-anchor="middle" x="74" y="-530.4" font-family="Helvetica,sans-Serif" font-size="10.00">MainWindow::MainWindow</text>
</a>
</g>
</g>
<!-- Node2 -->
<g id="Node000002" class="node">
<title>Node2</title>
<g id="a_Node000002"><a xlink:href="classTCPManager.html#a363c1b3b68d005feea5268decf210000" target="_top" xlink:title="Sygnał emitowany po zmianie stanu połączenia.">
<polygon fill="white" stroke="#666666" points="351,-729.9 184,-729.9 184,-699.9 351,-699.9 351,-729.9"/>
<text text-anchor="start" x="192" y="-717.9" font-family="Helvetica,sans-Serif" font-size="10.00">TCPManager::connectionStatus</text>
<text text-anchor="middle" x="267.5" y="-706.9" font-family="Helvetica,sans-Serif" font-size="10.00">Changed</text>
</a>
</g>
</g>
<!-- Node1&#45;&gt;Node2 -->
<g id="edge1_Node000001_Node000002" class="edge">
<title>Node1&#45;&gt;Node2</title>
<g id="a_edge1_Node000001_Node000002"><a xlink:title=" ">
<path fill="none" stroke="#63b8ff" d="M78.8,-542.4C90.26,-569.86 127.25,-649.95 184,-690.9 186.06,-692.39 188.22,-693.78 190.44,-695.1"/>
<polygon fill="#63b8ff" stroke="#63b8ff" points="188.85,-698.21 199.33,-699.74 192.09,-692 188.85,-698.21"/>
</a>
</g>
</g>
<!-- Node3 -->
<g id="Node000003" class="node">
<title>Node3</title>
<g id="a_Node000003"><a xlink:href="classSensorData.html#ac852da69eccb449b75153160aa56676b" target="_top" xlink:title="Sygnał emitowany przy jakiejkolwiek zmianie danych.">
<polygon fill="white" stroke="#666666" points="339,-681.4 196,-681.4 196,-662.4 339,-662.4 339,-681.4"/>
<text text-anchor="middle" x="267.5" y="-669.4" font-family="Helvetica,sans-Serif" font-size="10.00">SensorData::dataChanged</text>
</a>
</g>
</g>
<!-- Node1&#45;&gt;Node3 -->
<g id="edge2_Node000001_Node000003" class="edge">
<title>Node1&#45;&gt;Node3</title>
<g id="a_edge2_Node000001_Node000003"><a xlink:title=" ">
<path fill="none" stroke="#63b8ff" d="M80.7,-542.6C94.91,-565.88 134.37,-625.07 184,-653.9 187.01,-655.64 190.16,-657.22 193.42,-658.65"/>
<polygon fill="#63b8ff" stroke="#63b8ff" points="192.22,-661.93 202.81,-662.27 194.74,-655.4 192.22,-661.93"/>
</a>
</g>
</g>
<!-- Node4 -->
<g id="Node000004" class="node">
<title>Node4</title>
<g id="a_Node000004"><a xlink:href="classCSVManager.html#ac8dfd7524b2fe204986084c3accbd839" target="_top" xlink:title="Sygnał informujący o aktualizacji danych.">
<polygon fill="white" stroke="#666666" points="341.5,-644.4 193.5,-644.4 193.5,-625.4 341.5,-625.4 341.5,-644.4"/>
<text text-anchor="middle" x="267.5" y="-632.4" font-family="Helvetica,sans-Serif" font-size="10.00">CSVManager::dataUpdated</text>
</a>
</g>
</g>
<!-- Node1&#45;&gt;Node4 -->
<g id="edge3_Node000001_Node000004" class="edge">
<title>Node1&#45;&gt;Node4</title>
<g id="a_edge3_Node000001_Node000004"><a xlink:title=" ">
<path fill="none" stroke="#63b8ff" d="M84.51,-542.67C102.32,-560.36 142.63,-597.64 184,-616.9 188.34,-618.92 192.92,-620.72 197.6,-622.32"/>
<polygon fill="#63b8ff" stroke="#63b8ff" points="196.72,-625.71 207.31,-625.33 198.79,-619.02 196.72,-625.71"/>
</a>
</g>
</g>
<!-- Node5 -->
<g id="Node000005" class="node">
<title>Node5</title>
<g id="a_Node000005"><a xlink:href="classTCPManager.html#a6c3543bf266491dcb529beb7a44fe012" target="_top" xlink:title="Sygnał informujący o aktualizacji danych.">
<polygon fill="white" stroke="#666666" points="340.5,-607.4 194.5,-607.4 194.5,-588.4 340.5,-588.4 340.5,-607.4"/>
<text text-anchor="middle" x="267.5" y="-595.4" font-family="Helvetica,sans-Serif" font-size="10.00">TCPManager::dataUpdated</text>
</a>
</g>
</g>
<!-- Node1&#45;&gt;Node5 -->
<g id="edge4_Node000001_Node000005" class="edge">
<title>Node1&#45;&gt;Node5</title>
<g id="a_edge4_Node000001_Node000005"><a xlink:title=" ">
<path fill="none" stroke="#63b8ff" d="M94.7,-542.43C116.23,-552.57 151.95,-568.53 184,-578.9 191.94,-581.47 200.42,-583.83 208.8,-585.95"/>
<polygon fill="#63b8ff" stroke="#63b8ff" points="208.02,-589.37 218.56,-588.33 209.68,-582.56 208.02,-589.37"/>
</a>
</g>
</g>
<!-- Node6 -->
<g id="Node000006" class="node">
<title>Node6</title>
<g id="a_Node000006"><a xlink:href="classVisualizationManager.html#a89c8db228d60d6e69f919deeaa93a10c" target="_top" xlink:title="Inicjalizuje strzałki kierunku silników na starcie.">
<polygon fill="white" stroke="#666666" points="328.5,-569.9 206.5,-569.9 206.5,-539.9 328.5,-539.9 328.5,-569.9"/>
<text text-anchor="start" x="214.5" y="-557.9" font-family="Helvetica,sans-Serif" font-size="10.00">VisualizationManager</text>
<text text-anchor="middle" x="267.5" y="-546.9" font-family="Helvetica,sans-Serif" font-size="10.00">::setupArrows</text>
</a>
</g>
</g>
<!-- Node1&#45;&gt;Node6 -->
<g id="edge5_Node000001_Node000006" class="edge">
<title>Node1&#45;&gt;Node6</title>
<g id="a_edge5_Node000001_Node000006"><a xlink:title=" ">
<path fill="none" stroke="#63b8ff" d="M148.22,-541.31C163.98,-543.12 180.61,-545.03 196.26,-546.83"/>
<polygon fill="#63b8ff" stroke="#63b8ff" points="196.05,-550.33 206.38,-547.99 196.84,-543.37 196.05,-550.33"/>
</a>
</g>
</g>
<!-- Node7 -->
<g id="Node000007" class="node">
<title>Node7</title>
<g id="a_Node000007"><a xlink:href="classImuChartManager.html#af43ca7f8c5f2ab7db02c2fa72ee1a8fc" target="_top" xlink:title="Inicjalizuje (tworzy) wykres IMU i ustawia wszystkie parametry.">
<polygon fill="white" stroke="#666666" points="349.5,-521.4 185.5,-521.4 185.5,-502.4 349.5,-502.4 349.5,-521.4"/>
<text text-anchor="middle" x="267.5" y="-509.4" font-family="Helvetica,sans-Serif" font-size="10.00">ImuChartManager::setupChart</text>
</a>
</g>
</g>
<!-- Node1&#45;&gt;Node7 -->
<g id="edge6_Node000001_Node000007" class="edge">
<title>Node1&#45;&gt;Node7</title>
<g id="a_edge6_Node000001_Node000007"><a xlink:title=" ">
<path fill="none" stroke="#63b8ff" d="M148.22,-524.87C157.04,-523.9 166.13,-522.9 175.17,-521.91"/>
<polygon fill="#63b8ff" stroke="#63b8ff" points="175.78,-525.37 185.34,-520.8 175.02,-518.41 175.78,-525.37"/>
</a>
</g>
</g>
<!-- Node14 -->
<g id="Node000014" class="node">
<title>Node14</title>
<g id="a_Node000014"><a xlink:href="classLineChartMenager.html#af4ae0b8f7efd7713d2e1b3faabe96977" target="_top" xlink:title="Inicjalizuje (tworzy) wykres i ustawia wszystkie parametry.">
<polygon fill="white" stroke="#666666" points="350,-230.4 185,-230.4 185,-211.4 350,-211.4 350,-230.4"/>
<text text-anchor="middle" x="267.5" y="-218.4" font-family="Helvetica,sans-Serif" font-size="10.00">LineChartMenager::setupChart</text>
</a>
</g>
</g>
<!-- Node1&#45;&gt;Node14 -->
<g id="edge14_Node000001_Node000014" class="edge">
<title>Node1&#45;&gt;Node14</title>
<g id="a_edge14_Node000001_Node000014"><a xlink:title=" ">
<path fill="none" stroke="#63b8ff" d="M78.68,-523.12C90.94,-491.17 132.51,-387.6 184,-311.9 203.24,-283.61 230.77,-255.04 248.64,-237.65"/>
<polygon fill="#63b8ff" stroke="#63b8ff" points="251.31,-239.94 256.1,-230.49 246.46,-234.88 251.31,-239.94"/>
</a>
</g>
</g>
<!-- Node19 -->
<g id="Node000019" class="node">
<title>Node19</title>
<g id="a_Node000019"><a xlink:href="classMotorChartManager.html#a85717a01fbee0e8d8ddd24e83f6bc418" target="_top" xlink:title="Inicjalizuje (tworzy) wykres i ustawia wszystkie parametry.">
<polygon fill="white" stroke="#666666" points="327.5,-483.9 207.5,-483.9 207.5,-453.9 327.5,-453.9 327.5,-483.9"/>
<text text-anchor="start" x="215.5" y="-471.9" font-family="Helvetica,sans-Serif" font-size="10.00">MotorChartManager::</text>
<text text-anchor="middle" x="267.5" y="-460.9" font-family="Helvetica,sans-Serif" font-size="10.00">setupChart</text>
</a>
</g>
</g>
<!-- Node1&#45;&gt;Node19 -->
<g id="edge22_Node000001_Node000019" class="edge">
<title>Node1&#45;&gt;Node19</title>
<g id="a_edge22_Node000001_Node000019"><a xlink:title=" ">
<path fill="none" stroke="#63b8ff" d="M100.86,-523.24C122.87,-515.12 155.37,-503.35 184,-493.9 190.94,-491.61 198.23,-489.28 205.49,-487.02"/>
<polygon fill="#63b8ff" stroke="#63b8ff" points="206.81,-490.27 215.33,-483.98 204.74,-483.58 206.81,-490.27"/>
</a>
</g>
</g>
<!-- Node24 -->
<g id="Node000024" class="node">
<title>Node24</title>
<g id="a_Node000024"><a xlink:href="classTofChartManager.html#ac4c44afd699ff240c3564bfb619a3874" target="_top" xlink:title="Inicjalizuje (tworzy) wykres i ustawia wszystkie parametry.">
<polygon fill="white" stroke="#666666" points="347,-339.4 188,-339.4 188,-320.4 347,-320.4 347,-339.4"/>
<text text-anchor="middle" x="267.5" y="-327.4" font-family="Helvetica,sans-Serif" font-size="10.00">TofChartManager::setupChart</text>
</a>
</g>
</g>
<!-- Node1&#45;&gt;Node24 -->
<g id="edge30_Node000001_Node000024" class="edge">
<title>Node1&#45;&gt;Node24</title>
<g id="a_edge30_Node000001_Node000024"><a xlink:title=" ">
<path fill="none" stroke="#63b8ff" d="M83.98,-523.38C114.07,-491.49 211.6,-388.1 250.38,-346.98"/>
<polygon fill="#63b8ff" stroke="#63b8ff" points="253,-349.31 257.32,-339.63 247.91,-344.5 253,-349.31"/>
</a>
</g>
</g>
<!-- Node29 -->
<g id="Node000029" class="node">
<title>Node29</title>
<g id="a_Node000029"><a xlink:href="classVisualizationManager.html#a5f945fcf791c213972cc8762d0cc196b" target="_top" xlink:title="Odświeża wszystkie elementy wizualizacji na podstawie bieżących danych sensorów.">
<polygon fill="white" stroke="#666666" points="328.5,-192.9 206.5,-192.9 206.5,-162.9 328.5,-162.9 328.5,-192.9"/>
<text text-anchor="start" x="214.5" y="-180.9" font-family="Helvetica,sans-Serif" font-size="10.00">VisualizationManager</text>
<text text-anchor="middle" x="267.5" y="-169.9" font-family="Helvetica,sans-Serif" font-size="10.00">::updateAll</text>
</a>
</g>
</g>
<!-- Node1&#45;&gt;Node29 -->
<g id="edge38_Node000001_Node000029" class="edge">
<title>Node1&#45;&gt;Node29</title>
<g id="a_edge38_Node000001_Node000029"><a xlink:title=" ">
<path fill="none" stroke="#63b8ff" d="M75.15,-523.14C76.36,-479.15 87.26,-297.27 184,-202.9 187.95,-199.04 192.47,-195.78 197.33,-193.02"/>
<polygon fill="#63b8ff" stroke="#63b8ff" points="198.93,-196.13 206.36,-188.57 195.84,-189.85 198.93,-196.13"/>
</a>
</g>
</g>
<!-- Node8 -->
<g id="Node000008" class="node">
<title>Node8</title>
<g id="a_Node000008"><a xlink:href="classImuChartManager.html#a3f3d8399066e516e13bc1c288bf8c097" target="_top" xlink:title="Dostosowuje liczbę etykiet osi X do rozmiaru wykresu.">
<polygon fill="white" stroke="#666666" points="552.5,-708.9 391.5,-708.9 391.5,-678.9 552.5,-678.9 552.5,-708.9"/>
<text text-anchor="start" x="399.5" y="-696.9" font-family="Helvetica,sans-Serif" font-size="10.00">ImuChartManager::adjustAxis</text>
<text text-anchor="middle" x="472" y="-685.9" font-family="Helvetica,sans-Serif" font-size="10.00">Labels</text>
</a>
</g>
</g>
<!-- Node7&#45;&gt;Node8 -->
<g id="edge7_Node000007_Node000008" class="edge">
<title>Node7&#45;&gt;Node8</title>
<g id="a_edge7_Node000007_Node000008"><a xlink:title=" ">
<path fill="none" stroke="#63b8ff" d="M337.73,-521.53C342.58,-524.04 347.09,-527.12 351,-530.9 395.39,-573.71 344.95,-619.79 387,-664.9 389.96,-668.07 393.28,-670.9 396.85,-673.41"/>
<polygon fill="#63b8ff" stroke="#63b8ff" points="395.22,-676.52 405.58,-678.74 398.87,-670.55 395.22,-676.52"/>
</a>
</g>
</g>
<!-- Node9 -->
<g id="Node000009" class="node">
<title>Node9</title>
<g id="a_Node000009"><a xlink:href="classImuChartManager.html#a3704b4340f459b08b6ba87d462b149c0" target="_top" xlink:title="Wymusza przestrzeganie limitów osi X (brak przewijania poza [0, aktualny_czas]).">
<polygon fill="white" stroke="#666666" points="741,-734.9 594,-734.9 594,-704.9 741,-704.9 741,-734.9"/>
<text text-anchor="start" x="602" y="-722.9" font-family="Helvetica,sans-Serif" font-size="10.00">ImuChartManager::enforce</text>
<text text-anchor="middle" x="667.5" y="-711.9" font-family="Helvetica,sans-Serif" font-size="10.00">AxisLimits</text>
</a>
</g>
</g>
<!-- Node7&#45;&gt;Node9 -->
<g id="edge8_Node000007_Node000009" class="edge">
<title>Node7&#45;&gt;Node9</title>
<g id="a_edge8_Node000007_Node000009"><a xlink:title=" ">
<path fill="none" stroke="#63b8ff" d="M336.61,-521.49C341.83,-524 346.72,-527.09 351,-530.9 386.59,-562.58 351.3,-600.33 387,-631.9 444.99,-683.19 483.61,-645.24 557,-669.9 581.57,-678.15 608.03,-690.14 628.78,-700.31"/>
<polygon fill="#63b8ff" stroke="#63b8ff" points="627.38,-703.52 637.89,-704.84 630.49,-697.25 627.38,-703.52"/>
</a>
</g>
</g>
<!-- Node10 -->
<g id="Node000010" class="node">
<title>Node10</title>
<g id="a_Node000010"><a xlink:href="classImuChartManager.html#a4881022db1594a1449f50862c33645cb" target="_top" xlink:title="Wywoływane przy kliknięciu/przesuwaniu wykresu – wyłącza auto&#45;scroll.">
<polygon fill="white" stroke="#666666" points="557,-756.9 387,-756.9 387,-726.9 557,-726.9 557,-756.9"/>
<text text-anchor="start" x="395" y="-744.9" font-family="Helvetica,sans-Serif" font-size="10.00">ImuChartManager::handleChart</text>
<text text-anchor="middle" x="472" y="-733.9" font-family="Helvetica,sans-Serif" font-size="10.00">MousePressed</text>
</a>
</g>
</g>
<!-- Node7&#45;&gt;Node10 -->
<g id="edge9_Node000007_Node000010" class="edge">
<title>Node7&#45;&gt;Node10</title>
<g id="a_edge9_Node000007_Node000010"><a xlink:title=" ">
<path fill="none" stroke="#63b8ff" d="M338.43,-521.44C343.06,-523.98 347.33,-527.09 351,-530.9 409.76,-591.82 329.85,-655.47 387,-717.9 387.77,-718.74 388.56,-719.55 389.38,-720.33"/>
<polygon fill="#63b8ff" stroke="#63b8ff" points="387.36,-723.19 397.37,-726.66 391.71,-717.7 387.36,-723.19"/>
</a>
</g>
</g>
<!-- Node11 -->
<g id="Node000011" class="node">
<title>Node11</title>
<g id="a_Node000011"><a xlink:href="classImuChartManager.html#a6dc6132459a4453282200157560215b5" target="_top" xlink:title="Wywoływane przy puszczeniu myszy na wykresie – blokuje zakres przewijania.">
<polygon fill="white" stroke="#666666" points="557,-804.9 387,-804.9 387,-774.9 557,-774.9 557,-804.9"/>
<text text-anchor="start" x="395" y="-792.9" font-family="Helvetica,sans-Serif" font-size="10.00">ImuChartManager::handleChart</text>
<text text-anchor="middle" x="472" y="-781.9" font-family="Helvetica,sans-Serif" font-size="10.00">MouseReleased</text>
</a>
</g>
</g>
<!-- Node7&#45;&gt;Node11 -->
<g id="edge10_Node000007_Node000011" class="edge">
<title>Node7&#45;&gt;Node11</title>
<g id="a_edge10_Node000007_Node000011"><a xlink:title=" ">
<path fill="none" stroke="#63b8ff" d="M338.97,-521.5C343.42,-524.03 347.5,-527.13 351,-530.9 422.89,-608.34 317.15,-686.62 387,-765.9 387.75,-766.75 388.53,-767.58 389.34,-768.37"/>
<polygon fill="#63b8ff" stroke="#63b8ff" points="387.26,-771.19 397.22,-774.79 391.68,-765.76 387.26,-771.19"/>
</a>
</g>
</g>
<!-- Node12 -->
<g id="Node000012" class="node">
<title>Node12</title>
<g id="a_Node000012"><a xlink:href="classHorizontalOnlyChartView.html#a5ef619d9b976147eb7fe9f83da3b6688" target="_top" xlink:title="Ustawia callback wywoływany przy naciśnięciu lewego przycisku myszy na wykresie.">
<polygon fill="white" stroke="#666666" points="547,-440.9 397,-440.9 397,-410.9 547,-410.9 547,-440.9"/>
<text text-anchor="start" x="405" y="-428.9" font-family="Helvetica,sans-Serif" font-size="10.00">HorizontalOnlyChartView</text>
<text text-anchor="middle" x="472" y="-417.9" font-family="Helvetica,sans-Serif" font-size="10.00">::setMousePressedCallback</text>
</a>
</g>
</g>
<!-- Node7&#45;&gt;Node12 -->
<g id="edge12_Node000007_Node000012" class="edge">
<title>Node7&#45;&gt;Node12</title>
<g id="a_edge12_Node000007_Node000012"><a xlink:title=" ">
<path fill="none" stroke="#63b8ff" d="M320.23,-502.35C330.58,-499.78 341.26,-496.65 351,-492.9 382.79,-480.65 416.44,-461.23 439.99,-446.44"/>
<polygon fill="#63b8ff" stroke="#63b8ff" points="441.94,-449.35 448.5,-441.02 438.18,-443.44 441.94,-449.35"/>
</a>
</g>
</g>
<!-- Node13 -->
<g id="Node000013" class="node">
<title>Node13</title>
<g id="a_Node000013"><a xlink:href="classHorizontalOnlyChartView.html#a12bd31146864d4ca20b2da4544f6c2bf" target="_top" xlink:title="Ustawia callback wywoływany przy puszczeniu lewego przycisku myszy na wykresie.">
<polygon fill="white" stroke="#666666" points="550.5,-392.9 393.5,-392.9 393.5,-362.9 550.5,-362.9 550.5,-392.9"/>
<text text-anchor="start" x="401.5" y="-380.9" font-family="Helvetica,sans-Serif" font-size="10.00">HorizontalOnlyChartView</text>
<text text-anchor="middle" x="472" y="-369.9" font-family="Helvetica,sans-Serif" font-size="10.00">::setMouseReleasedCallback</text>
</a>
</g>
</g>
<!-- Node7&#45;&gt;Node13 -->
<g id="edge13_Node000007_Node000013" class="edge">
<title>Node7&#45;&gt;Node13</title>
<g id="a_edge13_Node000007_Node000013"><a xlink:title=" ">
<path fill="none" stroke="#63b8ff" d="M336.07,-502.33C341.46,-499.83 346.54,-496.73 351,-492.9 383.98,-464.54 354.77,-431.1 387,-401.9 388.31,-400.71 389.68,-399.58 391.1,-398.5"/>
<polygon fill="#63b8ff" stroke="#63b8ff" points="393.19,-401.31 399.67,-392.93 389.38,-395.44 393.19,-401.31"/>
</a>
</g>
</g>
<!-- Node11&#45;&gt;Node9 -->
<g id="edge11_Node000011_Node000009" class="edge">
<title>Node11&#45;&gt;Node9</title>
<g id="a_edge11_Node000011_Node000009"><a xlink:title=" ">
<path fill="none" stroke="#63b8ff" d="M529.32,-774.81C538.63,-772.03 548.13,-769.02 557,-765.9 579.5,-757.99 604.03,-747.83 624.15,-739.08"/>
<polygon fill="#63b8ff" stroke="#63b8ff" points="625.61,-742.26 633.36,-735.04 622.79,-735.85 625.61,-742.26"/>
</a>
</g>
</g>
<!-- Node14&#45;&gt;Node12 -->
<g id="edge20_Node000014_Node000012" class="edge">
<title>Node14&#45;&gt;Node12</title>
<g id="a_edge20_Node000014_Node000012"><a xlink:title=" ">
<path fill="none" stroke="#63b8ff" d="M279.47,-230.55C296.69,-246.17 330.21,-278.62 351,-311.9 373.83,-348.43 355.02,-373.03 387,-401.9 388.32,-403.09 389.69,-404.21 391.1,-405.29"/>
<polygon fill="#63b8ff" stroke="#63b8ff" points="389.39,-408.35 399.69,-410.85 393.2,-402.48 389.39,-408.35"/>
</a>
</g>
</g>
<!-- Node14&#45;&gt;Node13 -->
<g id="edge21_Node000014_Node000013" class="edge">
<title>Node14&#45;&gt;Node13</title>
<g id="a_edge21_Node000014_Node000013"><a xlink:title=" ">
<path fill="none" stroke="#63b8ff" d="M277.5,-230.65C292.76,-247.22 324.63,-281.98 351,-311.9 367.26,-330.34 366.3,-340.63 387,-353.9 389.6,-355.56 392.31,-357.12 395.11,-358.56"/>
<polygon fill="#63b8ff" stroke="#63b8ff" points="393.74,-361.79 404.28,-362.83 396.69,-355.44 393.74,-361.79"/>
</a>
</g>
</g>
<!-- Node15 -->
<g id="Node000015" class="node">
<title>Node15</title>
<g id="a_Node000015"><a xlink:href="classLineChartMenager.html#a71ff3e2215d7d10b9fd19877f9edfe94" target="_top" xlink:title="Dostosowuje liczbę etykiet osi X do rozmiaru wykresu.">
<polygon fill="white" stroke="#666666" points="543,-66.9 401,-66.9 401,-36.9 543,-36.9 543,-66.9"/>
<text text-anchor="start" x="409" y="-54.9" font-family="Helvetica,sans-Serif" font-size="10.00">LineChartMenager::adjust</text>
<text text-anchor="middle" x="472" y="-43.9" font-family="Helvetica,sans-Serif" font-size="10.00">AxisLabels</text>
</a>
</g>
</g>
<!-- Node14&#45;&gt;Node15 -->
<g id="edge15_Node000014_Node000015" class="edge">
<title>Node14&#45;&gt;Node15</title>
<g id="a_edge15_Node000014_Node000015"><a xlink:title=" ">
<path fill="none" stroke="#63b8ff" d="M337.27,-211.4C342.28,-208.87 346.95,-205.74 351,-201.9 393.24,-161.8 345.82,-117.08 387,-75.9 388.66,-74.24 390.42,-72.7 392.27,-71.26"/>
<polygon fill="#63b8ff" stroke="#63b8ff" points="394.44,-74.02 400.87,-65.6 390.59,-68.17 394.44,-74.02"/>
</a>
</g>
</g>
<!-- Node16 -->
<g id="Node000016" class="node">
<title>Node16</title>
<g id="a_Node000016"><a xlink:href="classLineChartMenager.html#a711bb6f8e8c0757c97cd52d45a0f49ad" target="_top" xlink:title="Wymusza przestrzeganie limitów osi X (brak przewijania poza [0, aktualny_czas]).">
<polygon fill="white" stroke="#666666" points="742,-126.9 593,-126.9 593,-96.9 742,-96.9 742,-126.9"/>
<text text-anchor="start" x="601" y="-114.9" font-family="Helvetica,sans-Serif" font-size="10.00">LineChartMenager::enforce</text>
<text text-anchor="middle" x="667.5" y="-103.9" font-family="Helvetica,sans-Serif" font-size="10.00">AxisLimits</text>
</a>
</g>
</g>
<!-- Node14&#45;&gt;Node16 -->
<g id="edge16_Node000014_Node000016" class="edge">
<title>Node14&#45;&gt;Node16</title>
<g id="a_edge16_Node000014_Node000016"><a xlink:title=" ">
<path fill="none" stroke="#63b8ff" d="M338.37,-211.3C343.01,-208.78 347.3,-205.68 351,-201.9 406.21,-145.44 325.76,-77.76 387,-27.9 445.59,19.81 485.45,-3.62 557,-27.9 592.61,-39.98 625.71,-68.82 646,-89.33"/>
<polygon fill="#63b8ff" stroke="#63b8ff" points="643.67,-91.96 653.13,-96.73 648.71,-87.1 643.67,-91.96"/>
</a>
</g>
</g>
<!-- Node17 -->
<g id="Node000017" class="node">
<title>Node17</title>
<g id="a_Node000017"><a xlink:href="classLineChartMenager.html#acbb2057099a3d9bf8cae41725122fc99" target="_top" xlink:title="Wywoływane przy kliknięciu/przesuwaniu wykresu – wyłącza auto&#45;scroll.">
<polygon fill="white" stroke="#666666" points="544.5,-114.9 399.5,-114.9 399.5,-84.9 544.5,-84.9 544.5,-114.9"/>
<text text-anchor="start" x="407.5" y="-102.9" font-family="Helvetica,sans-Serif" font-size="10.00">LineChartMenager::handle</text>
<text text-anchor="middle" x="472" y="-91.9" font-family="Helvetica,sans-Serif" font-size="10.00">ChartMousePressed</text>
</a>
</g>
</g>
<!-- Node14&#45;&gt;Node17 -->
<g id="edge17_Node000014_Node000017" class="edge">
<title>Node14&#45;&gt;Node17</title>
<g id="a_edge17_Node000014_Node000017"><a xlink:title=" ">
<path fill="none" stroke="#63b8ff" d="M335.43,-211.25C341.03,-208.77 346.32,-205.7 351,-201.9 380.63,-177.82 358,-148.74 387,-123.9 388.51,-122.6 390.09,-121.38 391.72,-120.22"/>
<polygon fill="#63b8ff" stroke="#63b8ff" points="393.6,-123.17 400.29,-114.95 389.94,-117.2 393.6,-123.17"/>
</a>
</g>
</g>
<!-- Node18 -->
<g id="Node000018" class="node">
<title>Node18</title>
<g id="a_Node000018"><a xlink:href="classLineChartMenager.html#aa940e9e26f3d2953abca44de085a0bf7" target="_top" xlink:title="Wywoływane przy puszczeniu myszy na wykresie – blokuje zakres przewijania.">
<polygon fill="white" stroke="#666666" points="544.5,-162.9 399.5,-162.9 399.5,-132.9 544.5,-132.9 544.5,-162.9"/>
<text text-anchor="start" x="407.5" y="-150.9" font-family="Helvetica,sans-Serif" font-size="10.00">LineChartMenager::handle</text>
<text text-anchor="middle" x="472" y="-139.9" font-family="Helvetica,sans-Serif" font-size="10.00">ChartMouseReleased</text>
</a>
</g>
</g>
<!-- Node14&#45;&gt;Node18 -->
<g id="edge18_Node000014_Node000018" class="edge">
<title>Node14&#45;&gt;Node18</title>
<g id="a_edge18_Node000014_Node000018"><a xlink:title=" ">
<path fill="none" stroke="#63b8ff" d="M323.59,-211.29C332.94,-208.8 342.4,-205.7 351,-201.9 368.81,-194.01 369.63,-185.71 387,-176.9 394.42,-173.13 402.43,-169.67 410.47,-166.54"/>
<polygon fill="#63b8ff" stroke="#63b8ff" points="411.73,-169.81 419.88,-163.03 409.29,-163.25 411.73,-169.81"/>
</a>
</g>
</g>
<!-- Node18&#45;&gt;Node16 -->
<g id="edge19_Node000018_Node000016" class="edge">
<title>Node18&#45;&gt;Node16</title>
<g id="a_edge19_Node000018_Node000016"><a xlink:title=" ">
<path fill="none" stroke="#63b8ff" d="M544.5,-134.59C556.91,-132.29 569.9,-129.87 582.6,-127.51"/>
<polygon fill="#63b8ff" stroke="#63b8ff" points="583.51,-130.9 592.7,-125.63 582.23,-124.02 583.51,-130.9"/>
</a>
</g>
</g>
<!-- Node19&#45;&gt;Node12 -->
<g id="edge28_Node000019_Node000012" class="edge">
<title>Node19&#45;&gt;Node12</title>
<g id="a_edge28_Node000019_Node000012"><a xlink:title=" ">
<path fill="none" stroke="#63b8ff" d="M327.62,-456.34C347.27,-452.17 369.5,-447.45 390.48,-442.99"/>
<polygon fill="#63b8ff" stroke="#63b8ff" points="391.29,-446.4 400.35,-440.9 389.84,-439.55 391.29,-446.4"/>
</a>
</g>
</g>
<!-- Node19&#45;&gt;Node13 -->
<g id="edge29_Node000019_Node000013" class="edge">
<title>Node19&#45;&gt;Node13</title>
<g id="a_edge29_Node000019_Node000013"><a xlink:title=" ">
<path fill="none" stroke="#63b8ff" d="M291.28,-453.86C314.55,-439.02 352.12,-416.5 387,-401.9 391.77,-399.9 396.77,-398.01 401.84,-396.23"/>
<polygon fill="#63b8ff" stroke="#63b8ff" points="403.27,-399.44 411.65,-392.95 401.05,-392.8 403.27,-399.44"/>
</a>
</g>
</g>
<!-- Node20 -->
<g id="Node000020" class="node">
<title>Node20</title>
<g id="a_Node000020"><a xlink:href="classMotorChartManager.html#ad2701ef1432db59dddda13f740613b2a" target="_top" xlink:title="Dostosowuje liczbę etykiet osi X do rozmiaru wykresu.">
<polygon fill="white" stroke="#666666" points="532,-526.9 412,-526.9 412,-496.9 532,-496.9 532,-526.9"/>
<text text-anchor="start" x="420" y="-514.9" font-family="Helvetica,sans-Serif" font-size="10.00">MotorChartManager::</text>
<text text-anchor="middle" x="472" y="-503.9" font-family="Helvetica,sans-Serif" font-size="10.00">adjustAxisLabels</text>
</a>
</g>
</g>
<!-- Node19&#45;&gt;Node20 -->
<g id="edge23_Node000019_Node000020" class="edge">
<title>Node19&#45;&gt;Node20</title>
<g id="a_edge23_Node000019_Node000020"><a xlink:title=" ">
<path fill="none" stroke="#63b8ff" d="M327.62,-481.45C350.91,-486.4 377.82,-492.11 401.99,-497.24"/>
<polygon fill="#63b8ff" stroke="#63b8ff" points="401.3,-500.68 411.81,-499.33 402.76,-493.83 401.3,-500.68"/>
</a>
</g>
</g>
<!-- Node21 -->
<g id="Node000021" class="node">
<title>Node21</title>
<g id="a_Node000021"><a xlink:href="classMotorChartManager.html#a76c5f53509d19a22b047cc777241eecc" target="_top" xlink:title="Wymusza przestrzeganie limitów osi X (brak przewijania poza [0, aktualny_czas]).">
<polygon fill="white" stroke="#666666" points="727.5,-552.9 607.5,-552.9 607.5,-522.9 727.5,-522.9 727.5,-552.9"/>
<text text-anchor="start" x="615.5" y="-540.9" font-family="Helvetica,sans-Serif" font-size="10.00">MotorChartManager::</text>
<text text-anchor="middle" x="667.5" y="-529.9" font-family="Helvetica,sans-Serif" font-size="10.00">enforceAxisLimits</text>
</a>
</g>
</g>
<!-- Node19&#45;&gt;Node21 -->
<g id="edge24_Node000019_Node000021" class="edge">
<title>Node19&#45;&gt;Node21</title>
<g id="a_edge24_Node000019_Node000021"><a xlink:title=" ">
<path fill="none" stroke="#63b8ff" d="M327.76,-466.61C386.77,-465.77 479.49,-468.35 557,-487.9 583.12,-494.49 610.71,-507.12 631.65,-518.04"/>
<polygon fill="#63b8ff" stroke="#63b8ff" points="630.02,-521.13 640.49,-522.75 633.31,-514.96 630.02,-521.13"/>
</a>
</g>
</g>
<!-- Node22 -->
<g id="Node000022" class="node">
<title>Node22</title>
<g id="a_Node000022"><a xlink:href="classMotorChartManager.html#ae3abfa18078ea0a68ee37fef72323b70" target="_top" xlink:title="Wywoływane przy kliknięciu/przesuwaniu wykresu – wyłącza auto&#45;scroll.">
<polygon fill="white" stroke="#666666" points="545,-574.9 399,-574.9 399,-544.9 545,-544.9 545,-574.9"/>
<text text-anchor="start" x="407" y="-562.9" font-family="Helvetica,sans-Serif" font-size="10.00">MotorChartManager::</text>
<text text-anchor="middle" x="472" y="-551.9" font-family="Helvetica,sans-Serif" font-size="10.00">handleChartMousePressed</text>
</a>
</g>
</g>
<!-- Node19&#45;&gt;Node22 -->
<g id="edge25_Node000019_Node000022" class="edge">
<title>Node19&#45;&gt;Node22</title>
<g id="a_edge25_Node000019_Node000022"><a xlink:title=" ">
<path fill="none" stroke="#63b8ff" d="M327.6,-482.28C335.8,-485.41 343.86,-489.24 351,-493.9 371.59,-507.33 366.3,-522.63 387,-535.9 389.6,-537.56 392.31,-539.12 395.11,-540.56"/>
<polygon fill="#63b8ff" stroke="#63b8ff" points="393.74,-543.79 404.28,-544.83 396.69,-537.44 393.74,-543.79"/>
</a>
</g>
</g>
<!-- Node23 -->
<g id="Node000023" class="node">
<title>Node23</title>
<g id="a_Node000023"><a xlink:href="classMotorChartManager.html#ae0ac3fc2c8546fbcf5e9b4dee08c575d" target="_top" xlink:title="Wywoływane przy puszczeniu myszy na wykresie – blokuje zakres przewijania.">
<polygon fill="white" stroke="#666666" points="548.5,-622.9 395.5,-622.9 395.5,-592.9 548.5,-592.9 548.5,-622.9"/>
<text text-anchor="start" x="403.5" y="-610.9" font-family="Helvetica,sans-Serif" font-size="10.00">MotorChartManager::</text>
<text text-anchor="middle" x="472" y="-599.9" font-family="Helvetica,sans-Serif" font-size="10.00">handleChartMouseReleased</text>
</a>
</g>
</g>
<!-- Node19&#45;&gt;Node23 -->
<g id="edge26_Node000019_Node000023" class="edge">
<title>Node19&#45;&gt;Node23</title>
<g id="a_edge26_Node000019_Node000023"><a xlink:title=" ">
<path fill="none" stroke="#63b8ff" d="M327.89,-479.75C336.34,-483.23 344.38,-487.83 351,-493.9 382.75,-523.02 355.02,-555.03 387,-583.9 388.32,-585.09 389.69,-586.21 391.1,-587.29"/>
<polygon fill="#63b8ff" stroke="#63b8ff" points="389.39,-590.35 399.69,-592.85 393.2,-584.48 389.39,-590.35"/>
</a>
</g>
</g>
<!-- Node23&#45;&gt;Node21 -->
<g id="edge27_Node000023_Node000021" class="edge">
<title>Node23&#45;&gt;Node21</title>
<g id="a_edge27_Node000023_Node000021"><a xlink:title=" ">
<path fill="none" stroke="#63b8ff" d="M529.32,-592.81C538.63,-590.03 548.13,-587.02 557,-583.9 579.5,-575.99 604.03,-565.83 624.15,-557.08"/>
<polygon fill="#63b8ff" stroke="#63b8ff" points="625.61,-560.26 633.36,-553.04 622.79,-553.85 625.61,-560.26"/>
</a>
</g>
</g>
<!-- Node24&#45;&gt;Node12 -->
<g id="edge36_Node000024_Node000012" class="edge">
<title>Node24&#45;&gt;Node12</title>
<g id="a_edge36_Node000024_Node000012"><a xlink:title=" ">
<path fill="none" stroke="#63b8ff" d="M281.72,-339.57C302.95,-354.72 346.42,-384.15 387,-401.9 391.46,-403.85 396.11,-405.68 400.85,-407.4"/>
<polygon fill="#63b8ff" stroke="#63b8ff" points="400.06,-410.83 410.65,-410.78 402.34,-404.21 400.06,-410.83"/>
</a>
</g>
</g>
<!-- Node24&#45;&gt;Node13 -->
<g id="edge37_Node000024_Node000013" class="edge">
<title>Node24&#45;&gt;Node13</title>
<g id="a_edge37_Node000024_Node000013"><a xlink:title=" ">
<path fill="none" stroke="#63b8ff" d="M308.99,-339.5C334.29,-345.49 367.63,-353.4 397.48,-360.47"/>
<polygon fill="#63b8ff" stroke="#63b8ff" points="396.92,-363.93 407.45,-362.83 398.53,-357.12 396.92,-363.93"/>
</a>
</g>
</g>
<!-- Node25 -->
<g id="Node000025" class="node">
<title>Node25</title>
<g id="a_Node000025"><a xlink:href="classTofChartManager.html#aef81c689ee20264f5258b5a776f86a2e" target="_top" xlink:title="Dostosowuje liczbę etykiet osi X do rozmiaru wykresu.">
<polygon fill="white" stroke="#666666" points="550.5,-248.9 393.5,-248.9 393.5,-218.9 550.5,-218.9 550.5,-248.9"/>
<text text-anchor="start" x="401.5" y="-236.9" font-family="Helvetica,sans-Serif" font-size="10.00">TofChartManager::adjustAxis</text>
<text text-anchor="middle" x="472" y="-225.9" font-family="Helvetica,sans-Serif" font-size="10.00">Labels</text>
</a>
</g>
</g>
<!-- Node24&#45;&gt;Node25 -->
<g id="edge31_Node000024_Node000025" class="edge">
<title>Node24&#45;&gt;Node25</title>
<g id="a_edge31_Node000024_Node000025"><a xlink:title=" ">
<path fill="none" stroke="#63b8ff" d="M281.72,-320.23C302.95,-305.07 346.42,-275.64 387,-257.9 391.46,-255.95 396.11,-254.11 400.85,-252.39"/>
<polygon fill="#63b8ff" stroke="#63b8ff" points="402.34,-255.58 410.65,-249.02 400.06,-248.96 402.34,-255.58"/>
</a>
</g>
</g>
<!-- Node26 -->
<g id="Node000026" class="node">
<title>Node26</title>
<g id="a_Node000026"><a xlink:href="classTofChartManager.html#a8ac57c7f9e2ca93abfcdeb41b45562e7" target="_top" xlink:title="Wymusza przestrzeganie limitów osi X (brak przewijania poza [0, aktualny_czas]).">
<polygon fill="white" stroke="#666666" points="739,-241.9 596,-241.9 596,-211.9 739,-211.9 739,-241.9"/>
<text text-anchor="start" x="604" y="-229.9" font-family="Helvetica,sans-Serif" font-size="10.00">TofChartManager::enforce</text>
<text text-anchor="middle" x="667.5" y="-218.9" font-family="Helvetica,sans-Serif" font-size="10.00">AxisLimits</text>
</a>
</g>
</g>
<!-- Node24&#45;&gt;Node26 -->
<g id="edge32_Node000024_Node000026" class="edge">
<title>Node24&#45;&gt;Node26</title>
<g id="a_edge32_Node000024_Node000026"><a xlink:title=" ">
<path fill="none" stroke="#63b8ff" d="M277.23,-320.24C302.16,-292.78 372.82,-215.82 387,-209.9 459.4,-179.64 551.62,-194.3 609.88,-209.26"/>
<polygon fill="#63b8ff" stroke="#63b8ff" points="609.08,-212.67 619.64,-211.85 610.87,-205.9 609.08,-212.67"/>
</a>
</g>
</g>
<!-- Node27 -->
<g id="Node000027" class="node">
<title>Node27</title>
<g id="a_Node000027"><a xlink:href="classTofChartManager.html#ae0ac92098b83bc7ac69e227ae5b1b853" target="_top" xlink:title="Wywoływane przy kliknięciu/przesuwaniu wykresu – wyłącza auto&#45;scroll.">
<polygon fill="white" stroke="#666666" points="554.5,-296.9 389.5,-296.9 389.5,-266.9 554.5,-266.9 554.5,-296.9"/>
<text text-anchor="start" x="397.5" y="-284.9" font-family="Helvetica,sans-Serif" font-size="10.00">TofChartManager::handleChart</text>
<text text-anchor="middle" x="472" y="-273.9" font-family="Helvetica,sans-Serif" font-size="10.00">MousePressed</text>
</a>
</g>
</g>
<!-- Node24&#45;&gt;Node27 -->
<g id="edge33_Node000024_Node000027" class="edge">
<title>Node24&#45;&gt;Node27</title>
<g id="a_edge33_Node000024_Node000027"><a xlink:title=" ">
<path fill="none" stroke="#63b8ff" d="M308.99,-320.3C334.29,-314.3 367.63,-306.4 397.48,-299.32"/>
<polygon fill="#63b8ff" stroke="#63b8ff" points="398.53,-302.67 407.45,-296.96 396.92,-295.86 398.53,-302.67"/>
</a>
</g>
</g>
<!-- Node28 -->
<g id="Node000028" class="node">
<title>Node28</title>
<g id="a_Node000028"><a xlink:href="classTofChartManager.html#a01396fca8c9f1064cf7be0618484227b" target="_top" xlink:title="Wywoływane przy puszczeniu myszy na wykresie – blokuje zakres przewijania.">
<polygon fill="white" stroke="#666666" points="554.5,-344.9 389.5,-344.9 389.5,-314.9 554.5,-314.9 554.5,-344.9"/>
<text text-anchor="start" x="397.5" y="-332.9" font-family="Helvetica,sans-Serif" font-size="10.00">TofChartManager::handleChart</text>
<text text-anchor="middle" x="472" y="-321.9" font-family="Helvetica,sans-Serif" font-size="10.00">MouseReleased</text>
</a>
</g>
</g>
<!-- Node24&#45;&gt;Node28 -->
<g id="edge34_Node000024_Node000028" class="edge">
<title>Node24&#45;&gt;Node28</title>
<g id="a_edge34_Node000024_Node000028"><a xlink:title=" ">
<path fill="none" stroke="#63b8ff" d="M347.08,-329.9C357.61,-329.9 368.49,-329.9 379.22,-329.9"/>
<polygon fill="#63b8ff" stroke="#63b8ff" points="379.45,-333.4 389.45,-329.9 379.45,-326.4 379.45,-333.4"/>
</a>
</g>
</g>
<!-- Node28&#45;&gt;Node26 -->
<g id="edge35_Node000028_Node000026" class="edge">
<title>Node28&#45;&gt;Node26</title>
<g id="a_edge35_Node000028_Node000026"><a xlink:title=" ">
<path fill="none" stroke="#63b8ff" d="M534.94,-314.87C542.52,-312.26 550.04,-309.27 557,-305.9 588.47,-290.63 620.45,-266.33 641.66,-248.71"/>
<polygon fill="#63b8ff" stroke="#63b8ff" points="644.12,-251.2 649.51,-242.08 639.61,-245.85 644.12,-251.2"/>
</a>
</g>
</g>
</g>
</svg>
