<?xml version="1.0" encoding="UTF-8" standalone="no"?>
<!DOCTYPE svg PUBLIC "-//W3C//DTD SVG 1.1//EN"
 "http://www.w3.org/Graphics/SVG/1.1/DTD/svg11.dtd">
<!-- Generated by graphviz version 2.43.0 (0)
 -->
<!-- Title: ImuChartManager::ImuChartManager Pages: 1 -->
<svg width="752pt" height="268pt"
 viewBox="0.00 0.00 752.00 268.00" xmlns="http://www.w3.org/2000/svg" xmlns:xlink="http://www.w3.org/1999/xlink">
<g id="graph0" class="graph" transform="scale(1 1) rotate(0) translate(4 264)">
<title>ImuChartManager::ImuChartManager</title>
<!-- Node1 -->
<g id="Node000001" class="node">
<title>Node1</title>
<g id="a_Node000001"><a xlink:title="Konstruktor.">
<polygon fill="#999999" stroke="#666666" points="155,-168 0,-168 0,-138 155,-138 155,-168"/>
<text text-anchor="start" x="8" y="-156" font-family="Helvetica,sans-Serif" font-size="10.00">ImuChartManager::ImuChart</text>
<text text-anchor="middle" x="77.5" y="-145" font-family="Helvetica,sans-Serif" font-size="10.00">Manager</text>
</a>
</g>
</g>
<!-- Node2 -->
<g id="Node000002" class="node">
<title>Node2</title>
<g id="a_Node000002"><a xlink:href="classSensorData.html#aeeb25bc8f4aa7c531044fc6b0ef98c73" target="_top" xlink:title="Sygnał emitowany przy zmianie danych IMU.">
<polygon fill="white" stroke="#666666" points="355,-181.5 191,-181.5 191,-162.5 355,-162.5 355,-181.5"/>
<text text-anchor="middle" x="273" y="-169.5" font-family="Helvetica,sans-Serif" font-size="10.00">SensorData::imuDataChanged</text>
</a>
</g>
</g>
<!-- Node1&#45;&gt;Node2 -->
<g id="edge1_Node000001_Node000002" class="edge">
<title>Node1&#45;&gt;Node2</title>
<g id="a_edge1_Node000001_Node000002"><a xlink:title=" ">
<path fill="none" stroke="#63b8ff" d="M155.25,-160.54C163.67,-161.36 172.3,-162.21 180.87,-163.05"/>
<polygon fill="#63b8ff" stroke="#63b8ff" points="180.6,-166.54 190.89,-164.04 181.28,-159.58 180.6,-166.54"/>
</a>
</g>
</g>
<!-- Node3 -->
<g id="Node000003" class="node">
<title>Node3</title>
<g id="a_Node000003"><a xlink:href="classImuChartManager.html#af43ca7f8c5f2ab7db02c2fa72ee1a8fc" target="_top" xlink:title="Inicjalizuje (tworzy) wykres IMU i ustawia wszystkie parametry.">
<polygon fill="white" stroke="#666666" points="355,-144.5 191,-144.5 191,-125.5 355,-125.5 355,-144.5"/>
<text text-anchor="middle" x="273" y="-132.5" font-family="Helvetica,sans-Serif" font-size="10.00">ImuChartManager::setupChart</text>
</a>
</g>
</g>
<!-- Node1&#45;&gt;Node3 -->
<g id="edge2_Node000001_Node000003" class="edge">
<title>Node1&#45;&gt;Node3</title>
<g id="a_edge2_Node000001_Node000003"><a xlink:title=" ">
<path fill="none" stroke="#63b8ff" d="M155.25,-145.86C163.67,-145.08 172.3,-144.27 180.87,-143.48"/>
<polygon fill="#63b8ff" stroke="#63b8ff" points="181.26,-146.96 190.89,-142.55 180.61,-139.99 181.26,-146.96"/>
</a>
</g>
</g>
<!-- Node4 -->
<g id="Node000004" class="node">
<title>Node4</title>
<g id="a_Node000004"><a xlink:href="classImuChartManager.html#a3f3d8399066e516e13bc1c288bf8c097" target="_top" xlink:title="Dostosowuje liczbę etykiet osi X do rozmiaru wykresu.">
<polygon fill="white" stroke="#666666" points="556.5,-260 395.5,-260 395.5,-230 556.5,-230 556.5,-260"/>
<text text-anchor="start" x="403.5" y="-248" font-family="Helvetica,sans-Serif" font-size="10.00">ImuChartManager::adjustAxis</text>
<text text-anchor="middle" x="476" y="-237" font-family="Helvetica,sans-Serif" font-size="10.00">Labels</text>
</a>
</g>
</g>
<!-- Node3&#45;&gt;Node4 -->
<g id="edge3_Node000003_Node000004" class="edge">
<title>Node3&#45;&gt;Node4</title>
<g id="a_edge3_Node000003_Node000004"><a xlink:title=" ">
<path fill="none" stroke="#63b8ff" d="M337.73,-144.56C343.89,-147.04 349.78,-150.13 355,-154 380.6,-172.97 366.4,-195.75 391,-216 395.32,-219.55 400.1,-222.68 405.12,-225.44"/>
<polygon fill="#63b8ff" stroke="#63b8ff" points="403.86,-228.72 414.38,-230 406.96,-222.44 403.86,-228.72"/>
</a>
</g>
</g>
<!-- Node5 -->
<g id="Node000005" class="node">
<title>Node5</title>
<g id="a_Node000005"><a xlink:href="classImuChartManager.html#a3704b4340f459b08b6ba87d462b149c0" target="_top" xlink:title="Wymusza przestrzeganie limitów osi X (brak przewijania poza [0, aktualny_czas]).">
<polygon fill="white" stroke="#666666" points="744,-171 597,-171 597,-141 744,-141 744,-171"/>
<text text-anchor="start" x="605" y="-159" font-family="Helvetica,sans-Serif" font-size="10.00">ImuChartManager::enforce</text>
<text text-anchor="middle" x="670.5" y="-148" font-family="Helvetica,sans-Serif" font-size="10.00">AxisLimits</text>
</a>
</g>
</g>
<!-- Node3&#45;&gt;Node5 -->
<g id="edge4_Node000003_Node000005" class="edge">
<title>Node3&#45;&gt;Node5</title>
<g id="a_edge4_Node000003_Node000005"><a xlink:title=" ">
<path fill="none" stroke="#63b8ff" d="M329.61,-144.55C338.34,-147.03 347.08,-150.13 355,-154 373.46,-163.02 371.62,-176.17 391,-183 466.41,-209.6 560,-190.82 617.2,-174.03"/>
<polygon fill="#63b8ff" stroke="#63b8ff" points="618.54,-177.28 627.1,-171.04 616.51,-170.58 618.54,-177.28"/>
</a>
</g>
</g>
<!-- Node6 -->
<g id="Node000006" class="node">
<title>Node6</title>
<g id="a_Node000006"><a xlink:href="classImuChartManager.html#a4881022db1594a1449f50862c33645cb" target="_top" xlink:title="Wywoływane przy kliknięciu/przesuwaniu wykresu – wyłącza auto&#45;scroll.">
<polygon fill="white" stroke="#666666" points="561,-174 391,-174 391,-144 561,-144 561,-174"/>
<text text-anchor="start" x="399" y="-162" font-family="Helvetica,sans-Serif" font-size="10.00">ImuChartManager::handleChart</text>
<text text-anchor="middle" x="476" y="-151" font-family="Helvetica,sans-Serif" font-size="10.00">MousePressed</text>
</a>
</g>
</g>
<!-- Node3&#45;&gt;Node6 -->
<g id="edge5_Node000003_Node000006" class="edge">
<title>Node3&#45;&gt;Node6</title>
<g id="a_edge5_Node000003_Node000006"><a xlink:title=" ">
<path fill="none" stroke="#63b8ff" d="M353.73,-144.52C362.57,-145.58 371.63,-146.66 380.63,-147.73"/>
<polygon fill="#63b8ff" stroke="#63b8ff" points="380.4,-151.23 390.75,-148.94 381.23,-144.28 380.4,-151.23"/>
</a>
</g>
</g>
<!-- Node7 -->
<g id="Node000007" class="node">
<title>Node7</title>
<g id="a_Node000007"><a xlink:href="classImuChartManager.html#a6dc6132459a4453282200157560215b5" target="_top" xlink:title="Wywoływane przy puszczeniu myszy na wykresie – blokuje zakres przewijania.">
<polygon fill="white" stroke="#666666" points="561,-126 391,-126 391,-96 561,-96 561,-126"/>
<text text-anchor="start" x="399" y="-114" font-family="Helvetica,sans-Serif" font-size="10.00">ImuChartManager::handleChart</text>
<text text-anchor="middle" x="476" y="-103" font-family="Helvetica,sans-Serif" font-size="10.00">MouseReleased</text>
</a>
</g>
</g>
<!-- Node3&#45;&gt;Node7 -->
<g id="edge6_Node000003_Node000007" class="edge">
<title>Node3&#45;&gt;Node7</title>
<g id="a_edge6_Node000003_Node000007"><a xlink:title=" ">
<path fill="none" stroke="#63b8ff" d="M353.73,-125.48C362.57,-124.42 371.63,-123.34 380.63,-122.27"/>
<polygon fill="#63b8ff" stroke="#63b8ff" points="381.23,-125.72 390.75,-121.06 380.4,-118.77 381.23,-125.72"/>
</a>
</g>
</g>
<!-- Node8 -->
<g id="Node000008" class="node">
<title>Node8</title>
<g id="a_Node000008"><a xlink:href="classHorizontalOnlyChartView.html#a5ef619d9b976147eb7fe9f83da3b6688" target="_top" xlink:title="Ustawia callback wywoływany przy naciśnięciu lewego przycisku myszy na wykresie.">
<polygon fill="white" stroke="#666666" points="551,-78 401,-78 401,-48 551,-48 551,-78"/>
<text text-anchor="start" x="409" y="-66" font-family="Helvetica,sans-Serif" font-size="10.00">HorizontalOnlyChartView</text>
<text text-anchor="middle" x="476" y="-55" font-family="Helvetica,sans-Serif" font-size="10.00">::setMousePressedCallback</text>
</a>
</g>
</g>
<!-- Node3&#45;&gt;Node8 -->
<g id="edge8_Node000003_Node000008" class="edge">
<title>Node3&#45;&gt;Node8</title>
<g id="a_edge8_Node000003_Node000008"><a xlink:title=" ">
<path fill="none" stroke="#63b8ff" d="M295.29,-125.43C318.53,-115.18 356.98,-98.8 391,-87 396.92,-84.95 403.13,-82.93 409.36,-80.99"/>
<polygon fill="#63b8ff" stroke="#63b8ff" points="410.6,-84.27 419.15,-78.02 408.57,-77.57 410.6,-84.27"/>
</a>
</g>
</g>
<!-- Node9 -->
<g id="Node000009" class="node">
<title>Node9</title>
<g id="a_Node000009"><a xlink:href="classHorizontalOnlyChartView.html#a12bd31146864d4ca20b2da4544f6c2bf" target="_top" xlink:title="Ustawia callback wywoływany przy puszczeniu lewego przycisku myszy na wykresie.">
<polygon fill="white" stroke="#666666" points="554.5,-30 397.5,-30 397.5,0 554.5,0 554.5,-30"/>
<text text-anchor="start" x="405.5" y="-18" font-family="Helvetica,sans-Serif" font-size="10.00">HorizontalOnlyChartView</text>
<text text-anchor="middle" x="476" y="-7" font-family="Helvetica,sans-Serif" font-size="10.00">::setMouseReleasedCallback</text>
</a>
</g>
</g>
<!-- Node3&#45;&gt;Node9 -->
<g id="edge9_Node000003_Node000009" class="edge">
<title>Node3&#45;&gt;Node9</title>
<g id="a_edge9_Node000003_Node000009"><a xlink:title=" ">
<path fill="none" stroke="#63b8ff" d="M283.03,-125.3C301.49,-106.03 345.62,-62.78 391,-39 394.53,-37.15 398.21,-35.43 401.99,-33.83"/>
<polygon fill="#63b8ff" stroke="#63b8ff" points="403.49,-37 411.52,-30.09 400.93,-30.48 403.49,-37"/>
</a>
</g>
</g>
<!-- Node7&#45;&gt;Node5 -->
<g id="edge7_Node000007_Node000005" class="edge">
<title>Node7&#45;&gt;Node5</title>
<g id="a_edge7_Node000007_Node000005"><a xlink:title=" ">
<path fill="none" stroke="#63b8ff" d="M541.37,-126.05C558.7,-130.1 577.6,-134.52 595.42,-138.68"/>
<polygon fill="#63b8ff" stroke="#63b8ff" points="594.66,-142.1 605.19,-140.97 596.25,-135.28 594.66,-142.1"/>
</a>
</g>
</g>
</g>
</svg>
