<?xml version="1.0" encoding="UTF-8" standalone="no"?>
<!DOCTYPE svg PUBLIC "-//W3C//DTD SVG 1.1//EN"
 "http://www.w3.org/Graphics/SVG/1.1/DTD/svg11.dtd">
<!-- Generated by graphviz version 2.43.0 (0)
 -->
<!-- Title: SensorData::setLineS3Active Pages: 1 -->
<svg width="370pt" height="64pt"
 viewBox="0.00 0.00 370.00 64.00" xmlns="http://www.w3.org/2000/svg" xmlns:xlink="http://www.w3.org/1999/xlink">
<g id="graph0" class="graph" transform="scale(1 1) rotate(0) translate(4 60)">
<title>SensorData::setLineS3Active</title>
<!-- Node1 -->
<g id="Node000001" class="node">
<title>Node1</title>
<g id="a_Node000001"><a xlink:title="Ustawia aktywność czujnika linii S3 i emituje sygnały przy zmianie.">
<polygon fill="#999999" stroke="#666666" points="157,-37 0,-37 0,-18 157,-18 157,-37"/>
<text text-anchor="middle" x="78.5" y="-25" font-family="Helvetica,sans-Serif" font-size="10.00">SensorData::setLineS3Active</text>
</a>
</g>
</g>
<!-- Node2 -->
<g id="Node000002" class="node">
<title>Node2</title>
<g id="a_Node000002"><a xlink:href="classSensorData.html#ac852da69eccb449b75153160aa56676b" target="_top" xlink:title="Sygnał emitowany przy jakiejkolwiek zmianie danych.">
<polygon fill="white" stroke="#666666" points="349,-56 206,-56 206,-37 349,-37 349,-56"/>
<text text-anchor="middle" x="277.5" y="-44" font-family="Helvetica,sans-Serif" font-size="10.00">SensorData::dataChanged</text>
</a>
</g>
</g>
<!-- Node1&#45;&gt;Node2 -->
<g id="edge1_Node000001_Node000002" class="edge">
<title>Node1&#45;&gt;Node2</title>
<g id="a_edge1_Node000001_Node000002"><a xlink:title=" ">
<path fill="none" stroke="#63b8ff" d="M157.08,-34.98C169.74,-36.2 182.88,-37.47 195.61,-38.7"/>
<polygon fill="#63b8ff" stroke="#63b8ff" points="195.43,-42.2 205.72,-39.67 196.11,-35.23 195.43,-42.2"/>
</a>
</g>
</g>
<!-- Node3 -->
<g id="Node000003" class="node">
<title>Node3</title>
<g id="a_Node000003"><a xlink:href="classSensorData.html#a0ebd4e4804899960c3708d6ff6b4641e" target="_top" xlink:title="Sygnał emitowany przy zmianie dowolnych czujników linii.">
<polygon fill="white" stroke="#666666" points="362,-19 193,-19 193,0 362,0 362,-19"/>
<text text-anchor="middle" x="277.5" y="-7" font-family="Helvetica,sans-Serif" font-size="10.00">SensorData::lineSDataChanged</text>
</a>
</g>
</g>
<!-- Node1&#45;&gt;Node3 -->
<g id="edge2_Node000001_Node000003" class="edge">
<title>Node1&#45;&gt;Node3</title>
<g id="a_edge2_Node000001_Node000003"><a xlink:title=" ">
<path fill="none" stroke="#63b8ff" d="M157.08,-20.41C165.51,-19.64 174.16,-18.85 182.76,-18.06"/>
<polygon fill="#63b8ff" stroke="#63b8ff" points="183.18,-21.54 192.82,-17.15 182.55,-14.57 183.18,-21.54"/>
</a>
</g>
</g>
</g>
</svg>
