<?xml version="1.0" encoding="UTF-8" standalone="no"?>
<!DOCTYPE svg PUBLIC "-//W3C//DTD SVG 1.1//EN"
 "http://www.w3.org/Graphics/SVG/1.1/DTD/svg11.dtd">
<!-- Generated by graphviz version 2.43.0 (0)
 -->
<!-- Title: TofChartManager::adjustAxisLabels Pages: 1 -->
<svg width="544pt" height="91pt"
 viewBox="0.00 0.00 544.00 90.50" xmlns="http://www.w3.org/2000/svg" xmlns:xlink="http://www.w3.org/1999/xlink">
<g id="graph0" class="graph" transform="scale(1 1) rotate(0) translate(4 86.5)">
<title>TofChartManager::adjustAxisLabels</title>
<!-- Node1 -->
<g id="Node000001" class="node">
<title>Node1</title>
<g id="a_Node000001"><a xlink:title="Dostosowuje liczbę etykiet osi X do rozmiaru wykresu.">
<polygon fill="#999999" stroke="#666666" points="536,-69 379,-69 379,-39 536,-39 536,-69"/>
<text text-anchor="start" x="387" y="-57" font-family="Helvetica,sans-Serif" font-size="10.00">TofChartManager::adjustAxis</text>
<text text-anchor="middle" x="457.5" y="-46" font-family="Helvetica,sans-Serif" font-size="10.00">Labels</text>
</a>
</g>
</g>
<!-- Node2 -->
<g id="Node000002" class="node">
<title>Node2</title>
<g id="a_Node000002"><a xlink:href="classTofChartManager.html#a89703b8b34f39fac0281d3d21ba75f1b" target="_top" xlink:title="Filtr zdarzeń do obsługi resize kontenera wykresu.">
<polygon fill="white" stroke="#666666" points="342.5,-82.5 184.5,-82.5 184.5,-63.5 342.5,-63.5 342.5,-82.5"/>
<text text-anchor="middle" x="263.5" y="-70.5" font-family="Helvetica,sans-Serif" font-size="10.00">TofChartManager::eventFilter</text>
</a>
</g>
</g>
<!-- Node1&#45;&gt;Node2 -->
<g id="edge1_Node000001_Node000002" class="edge">
<title>Node1&#45;&gt;Node2</title>
<g id="a_edge1_Node000001_Node000002"><a xlink:title=" ">
<path fill="none" stroke="#63b8ff" d="M368.78,-62.68C360.07,-63.54 351.25,-64.41 342.64,-65.27"/>
<polygon fill="#63b8ff" stroke="#63b8ff" points="369.35,-66.14 378.96,-61.67 368.66,-59.18 369.35,-66.14"/>
</a>
</g>
</g>
<!-- Node3 -->
<g id="Node000003" class="node">
<title>Node3</title>
<g id="a_Node000003"><a xlink:href="classTofChartManager.html#ac4c44afd699ff240c3564bfb619a3874" target="_top" xlink:title="Inicjalizuje (tworzy) wykres i ustawia wszystkie parametry.">
<polygon fill="white" stroke="#666666" points="343,-45.5 184,-45.5 184,-26.5 343,-26.5 343,-45.5"/>
<text text-anchor="middle" x="263.5" y="-33.5" font-family="Helvetica,sans-Serif" font-size="10.00">TofChartManager::setupChart</text>
</a>
</g>
</g>
<!-- Node1&#45;&gt;Node3 -->
<g id="edge2_Node000001_Node000003" class="edge">
<title>Node1&#45;&gt;Node3</title>
<g id="a_edge2_Node000001_Node000003"><a xlink:title=" ">
<path fill="none" stroke="#63b8ff" d="M368.96,-45.79C360.4,-44.99 351.74,-44.18 343.27,-43.38"/>
<polygon fill="#63b8ff" stroke="#63b8ff" points="368.68,-49.28 378.96,-46.73 369.33,-42.31 368.68,-49.28"/>
</a>
</g>
</g>
<!-- Node4 -->
<g id="Node000004" class="node">
<title>Node4</title>
<g id="a_Node000004"><a xlink:href="classMainWindow.html#a996c5a2b6f77944776856f08ec30858d" target="_top" xlink:title="Konstruktor klasy MainWindow.">
<polygon fill="white" stroke="#666666" points="148,-67.5 0,-67.5 0,-48.5 148,-48.5 148,-67.5"/>
<text text-anchor="middle" x="74" y="-55.5" font-family="Helvetica,sans-Serif" font-size="10.00">MainWindow::MainWindow</text>
</a>
</g>
</g>
<!-- Node3&#45;&gt;Node4 -->
<g id="edge3_Node000003_Node000004" class="edge">
<title>Node3&#45;&gt;Node4</title>
<g id="a_edge3_Node000003_Node000004"><a xlink:title=" ">
<path fill="none" stroke="#63b8ff" d="M173.76,-46.41C165.17,-47.42 156.53,-48.43 148.12,-49.42"/>
<polygon fill="#63b8ff" stroke="#63b8ff" points="174.27,-49.88 183.8,-45.23 173.46,-42.92 174.27,-49.88"/>
</a>
</g>
</g>
<!-- Node5 -->
<g id="Node000005" class="node">
<title>Node5</title>
<g id="a_Node000005"><a xlink:href="classTofChartManager.html#a004c9c1a278d99138a7e34802c175fc6" target="_top" xlink:title="Konstruktor.">
<polygon fill="white" stroke="#666666" points="147,-30 1,-30 1,0 147,0 147,-30"/>
<text text-anchor="start" x="9" y="-18" font-family="Helvetica,sans-Serif" font-size="10.00">TofChartManager::TofChart</text>
<text text-anchor="middle" x="74" y="-7" font-family="Helvetica,sans-Serif" font-size="10.00">Manager</text>
</a>
</g>
</g>
<!-- Node3&#45;&gt;Node5 -->
<g id="edge4_Node000003_Node000005" class="edge">
<title>Node3&#45;&gt;Node5</title>
<g id="a_edge4_Node000003_Node000005"><a xlink:title=" ">
<path fill="none" stroke="#63b8ff" d="M173.79,-26.06C164.89,-25.07 155.93,-24.06 147.22,-23.09"/>
<polygon fill="#63b8ff" stroke="#63b8ff" points="173.47,-29.55 183.8,-27.19 174.25,-22.59 173.47,-29.55"/>
</a>
</g>
</g>
</g>
</svg>
