<?xml version="1.0" encoding="UTF-8" standalone="no"?>
<!DOCTYPE svg PUBLIC "-//W3C//DTD SVG 1.1//EN"
 "http://www.w3.org/Graphics/SVG/1.1/DTD/svg11.dtd">
<!-- Generated by graphviz version 2.43.0 (0)
 -->
<!-- Title: MotorChartManager::handleChartMousePressed Pages: 1 -->
<svg width="494pt" height="76pt"
 viewBox="0.00 0.00 494.00 75.50" xmlns="http://www.w3.org/2000/svg" xmlns:xlink="http://www.w3.org/1999/xlink">
<g id="graph0" class="graph" transform="scale(1 1) rotate(0) translate(4 71.5)">
<title>MotorChartManager::handleChartMousePressed</title>
<!-- Node1 -->
<g id="Node000001" class="node">
<title>Node1</title>
<g id="a_Node000001"><a xlink:title="Wywoływane przy kliknięciu/przesuwaniu wykresu – wyłącza auto&#45;scroll.">
<polygon fill="#999999" stroke="#666666" points="486,-51 340,-51 340,-21 486,-21 486,-51"/>
<text text-anchor="start" x="348" y="-39" font-family="Helvetica,sans-Serif" font-size="10.00">MotorChartManager::</text>
<text text-anchor="middle" x="413" y="-28" font-family="Helvetica,sans-Serif" font-size="10.00">handleChartMousePressed</text>
</a>
</g>
</g>
<!-- Node2 -->
<g id="Node000002" class="node">
<title>Node2</title>
<g id="a_Node000002"><a xlink:href="classMotorChartManager.html#a85717a01fbee0e8d8ddd24e83f6bc418" target="_top" xlink:title="Inicjalizuje (tworzy) wykres i ustawia wszystkie parametry.">
<polygon fill="white" stroke="#666666" points="304,-51 184,-51 184,-21 304,-21 304,-51"/>
<text text-anchor="start" x="192" y="-39" font-family="Helvetica,sans-Serif" font-size="10.00">MotorChartManager::</text>
<text text-anchor="middle" x="244" y="-28" font-family="Helvetica,sans-Serif" font-size="10.00">setupChart</text>
</a>
</g>
</g>
<!-- Node1&#45;&gt;Node2 -->
<g id="edge1_Node000001_Node000002" class="edge">
<title>Node1&#45;&gt;Node2</title>
<g id="a_edge1_Node000001_Node000002"><a xlink:title=" ">
<path fill="none" stroke="#63b8ff" d="M329.63,-36C321.01,-36 312.37,-36 304.08,-36"/>
<polygon fill="#63b8ff" stroke="#63b8ff" points="329.72,-39.5 339.72,-36 329.72,-32.5 329.72,-39.5"/>
</a>
</g>
</g>
<!-- Node3 -->
<g id="Node000003" class="node">
<title>Node3</title>
<g id="a_Node000003"><a xlink:href="classMainWindow.html#a996c5a2b6f77944776856f08ec30858d" target="_top" xlink:title="Konstruktor klasy MainWindow.">
<polygon fill="white" stroke="#666666" points="148,-67.5 0,-67.5 0,-48.5 148,-48.5 148,-67.5"/>
<text text-anchor="middle" x="74" y="-55.5" font-family="Helvetica,sans-Serif" font-size="10.00">MainWindow::MainWindow</text>
</a>
</g>
</g>
<!-- Node2&#45;&gt;Node3 -->
<g id="edge2_Node000002_Node000003" class="edge">
<title>Node2&#45;&gt;Node3</title>
<g id="a_edge2_Node000002_Node000003"><a xlink:title=" ">
<path fill="none" stroke="#63b8ff" d="M173.82,-45.06C165.25,-46.18 156.46,-47.33 147.83,-48.46"/>
<polygon fill="#63b8ff" stroke="#63b8ff" points="174.31,-48.53 183.77,-43.76 173.4,-41.58 174.31,-48.53"/>
</a>
</g>
</g>
<!-- Node4 -->
<g id="Node000004" class="node">
<title>Node4</title>
<g id="a_Node000004"><a xlink:href="classMotorChartManager.html#aa5b587327b9d86bc367fcb6bf20dd1e0" target="_top" xlink:title="Konstruktor.">
<polygon fill="white" stroke="#666666" points="134,-30 14,-30 14,0 134,0 134,-30"/>
<text text-anchor="start" x="22" y="-18" font-family="Helvetica,sans-Serif" font-size="10.00">MotorChartManager::</text>
<text text-anchor="middle" x="74" y="-7" font-family="Helvetica,sans-Serif" font-size="10.00">MotorChartManager</text>
</a>
</g>
</g>
<!-- Node2&#45;&gt;Node4 -->
<g id="edge3_Node000002_Node000004" class="edge">
<title>Node2&#45;&gt;Node4</title>
<g id="a_edge3_Node000002_Node000004"><a xlink:title=" ">
<path fill="none" stroke="#63b8ff" d="M173.84,-27.36C160.7,-25.71 147.06,-24.01 134.26,-22.41"/>
<polygon fill="#63b8ff" stroke="#63b8ff" points="173.41,-30.83 183.77,-28.6 174.28,-23.88 173.41,-30.83"/>
</a>
</g>
</g>
</g>
</svg>
