<?xml version="1.0" encoding="UTF-8" standalone="no"?>
<!DOCTYPE svg PUBLIC "-//W3C//DTD SVG 1.1//EN"
 "http://www.w3.org/Graphics/SVG/1.1/DTD/svg11.dtd">
<!-- Generated by graphviz version 2.43.0 (0)
 -->
<!-- Title: LineChartMenager::setupChart Pages: 1 -->
<svg width="551pt" height="268pt"
 viewBox="0.00 0.00 551.00 268.00" xmlns="http://www.w3.org/2000/svg" xmlns:xlink="http://www.w3.org/1999/xlink">
<g id="graph0" class="graph" transform="scale(1 1) rotate(0) translate(4 264)">
<title>LineChartMenager::setupChart</title>
<!-- Node1 -->
<g id="Node000001" class="node">
<title>Node1</title>
<g id="a_Node000001"><a xlink:title="Inicjalizuje (tworzy) wykres i ustawia wszystkie parametry.">
<polygon fill="#999999" stroke="#666666" points="165,-144.5 0,-144.5 0,-125.5 165,-125.5 165,-144.5"/>
<text text-anchor="middle" x="82.5" y="-132.5" font-family="Helvetica,sans-Serif" font-size="10.00">LineChartMenager::setupChart</text>
</a>
</g>
</g>
<!-- Node2 -->
<g id="Node000002" class="node">
<title>Node2</title>
<g id="a_Node000002"><a xlink:href="classLineChartMenager.html#a71ff3e2215d7d10b9fd19877f9edfe94" target="_top" xlink:title="Dostosowuje liczbę etykiet osi X do rozmiaru wykresu.">
<polygon fill="white" stroke="#666666" points="350.5,-260 208.5,-260 208.5,-230 350.5,-230 350.5,-260"/>
<text text-anchor="start" x="216.5" y="-248" font-family="Helvetica,sans-Serif" font-size="10.00">LineChartMenager::adjust</text>
<text text-anchor="middle" x="279.5" y="-237" font-family="Helvetica,sans-Serif" font-size="10.00">AxisLabels</text>
</a>
</g>
</g>
<!-- Node1&#45;&gt;Node2 -->
<g id="edge1_Node000001_Node000002" class="edge">
<title>Node1&#45;&gt;Node2</title>
<g id="a_edge1_Node000001_Node000002"><a xlink:title=" ">
<path fill="none" stroke="#63b8ff" d="M95.23,-144.55C115.69,-160.87 159.7,-194.46 201,-216 207.99,-219.64 215.53,-223.06 223.09,-226.17"/>
<polygon fill="#63b8ff" stroke="#63b8ff" points="222.02,-229.52 232.61,-229.95 224.61,-223.01 222.02,-229.52"/>
</a>
</g>
</g>
<!-- Node3 -->
<g id="Node000003" class="node">
<title>Node3</title>
<g id="a_Node000003"><a xlink:href="classLineChartMenager.html#a711bb6f8e8c0757c97cd52d45a0f49ad" target="_top" xlink:title="Wymusza przestrzeganie limitów osi X (brak przewijania poza [0, aktualny_czas]).">
<polygon fill="white" stroke="#666666" points="543,-171 394,-171 394,-141 543,-141 543,-171"/>
<text text-anchor="start" x="402" y="-159" font-family="Helvetica,sans-Serif" font-size="10.00">LineChartMenager::enforce</text>
<text text-anchor="middle" x="468.5" y="-148" font-family="Helvetica,sans-Serif" font-size="10.00">AxisLimits</text>
</a>
</g>
</g>
<!-- Node1&#45;&gt;Node3 -->
<g id="edge2_Node000001_Node000003" class="edge">
<title>Node1&#45;&gt;Node3</title>
<g id="a_edge2_Node000001_Node000003"><a xlink:title=" ">
<path fill="none" stroke="#63b8ff" d="M100.75,-144.55C123.08,-156.32 163.59,-175.65 201,-183 269.47,-196.45 288.73,-191.41 358,-183 374.34,-181.02 391.75,-177.42 407.77,-173.49"/>
<polygon fill="#63b8ff" stroke="#63b8ff" points="408.72,-176.87 417.55,-171.01 406.99,-170.08 408.72,-176.87"/>
</a>
</g>
</g>
<!-- Node4 -->
<g id="Node000004" class="node">
<title>Node4</title>
<g id="a_Node000004"><a xlink:href="classLineChartMenager.html#acbb2057099a3d9bf8cae41725122fc99" target="_top" xlink:title="Wywoływane przy kliknięciu/przesuwaniu wykresu – wyłącza auto&#45;scroll.">
<polygon fill="white" stroke="#666666" points="352,-174 207,-174 207,-144 352,-144 352,-174"/>
<text text-anchor="start" x="215" y="-162" font-family="Helvetica,sans-Serif" font-size="10.00">LineChartMenager::handle</text>
<text text-anchor="middle" x="279.5" y="-151" font-family="Helvetica,sans-Serif" font-size="10.00">ChartMousePressed</text>
</a>
</g>
</g>
<!-- Node1&#45;&gt;Node4 -->
<g id="edge3_Node000001_Node000004" class="edge">
<title>Node1&#45;&gt;Node4</title>
<g id="a_edge3_Node000001_Node000004"><a xlink:title=" ">
<path fill="none" stroke="#63b8ff" d="M160.85,-144.52C172.73,-145.98 185.03,-147.5 196.99,-148.97"/>
<polygon fill="#63b8ff" stroke="#63b8ff" points="196.6,-152.45 206.95,-150.19 197.45,-145.5 196.6,-152.45"/>
</a>
</g>
</g>
<!-- Node5 -->
<g id="Node000005" class="node">
<title>Node5</title>
<g id="a_Node000005"><a xlink:href="classLineChartMenager.html#aa940e9e26f3d2953abca44de085a0bf7" target="_top" xlink:title="Wywoływane przy puszczeniu myszy na wykresie – blokuje zakres przewijania.">
<polygon fill="white" stroke="#666666" points="352,-126 207,-126 207,-96 352,-96 352,-126"/>
<text text-anchor="start" x="215" y="-114" font-family="Helvetica,sans-Serif" font-size="10.00">LineChartMenager::handle</text>
<text text-anchor="middle" x="279.5" y="-103" font-family="Helvetica,sans-Serif" font-size="10.00">ChartMouseReleased</text>
</a>
</g>
</g>
<!-- Node1&#45;&gt;Node5 -->
<g id="edge4_Node000001_Node000005" class="edge">
<title>Node1&#45;&gt;Node5</title>
<g id="a_edge4_Node000001_Node000005"><a xlink:title=" ">
<path fill="none" stroke="#63b8ff" d="M160.85,-125.48C172.73,-124.02 185.03,-122.5 196.99,-121.03"/>
<polygon fill="#63b8ff" stroke="#63b8ff" points="197.45,-124.5 206.95,-119.81 196.6,-117.55 197.45,-124.5"/>
</a>
</g>
</g>
<!-- Node6 -->
<g id="Node000006" class="node">
<title>Node6</title>
<g id="a_Node000006"><a xlink:href="classHorizontalOnlyChartView.html#a5ef619d9b976147eb7fe9f83da3b6688" target="_top" xlink:title="Ustawia callback wywoływany przy naciśnięciu lewego przycisku myszy na wykresie.">
<polygon fill="white" stroke="#666666" points="354.5,-78 204.5,-78 204.5,-48 354.5,-48 354.5,-78"/>
<text text-anchor="start" x="212.5" y="-66" font-family="Helvetica,sans-Serif" font-size="10.00">HorizontalOnlyChartView</text>
<text text-anchor="middle" x="279.5" y="-55" font-family="Helvetica,sans-Serif" font-size="10.00">::setMousePressedCallback</text>
</a>
</g>
</g>
<!-- Node1&#45;&gt;Node6 -->
<g id="edge6_Node000001_Node000006" class="edge">
<title>Node1&#45;&gt;Node6</title>
<g id="a_edge6_Node000001_Node000006"><a xlink:title=" ">
<path fill="none" stroke="#63b8ff" d="M105.37,-125.4C128.8,-115.26 167.19,-99.12 201,-87 206.44,-85.05 212.12,-83.11 217.83,-81.23"/>
<polygon fill="#63b8ff" stroke="#63b8ff" points="219,-84.53 227.43,-78.12 216.84,-77.87 219,-84.53"/>
</a>
</g>
</g>
<!-- Node7 -->
<g id="Node000007" class="node">
<title>Node7</title>
<g id="a_Node000007"><a xlink:href="classHorizontalOnlyChartView.html#a12bd31146864d4ca20b2da4544f6c2bf" target="_top" xlink:title="Ustawia callback wywoływany przy puszczeniu lewego przycisku myszy na wykresie.">
<polygon fill="white" stroke="#666666" points="358,-30 201,-30 201,0 358,0 358,-30"/>
<text text-anchor="start" x="209" y="-18" font-family="Helvetica,sans-Serif" font-size="10.00">HorizontalOnlyChartView</text>
<text text-anchor="middle" x="279.5" y="-7" font-family="Helvetica,sans-Serif" font-size="10.00">::setMouseReleasedCallback</text>
</a>
</g>
</g>
<!-- Node1&#45;&gt;Node7 -->
<g id="edge7_Node000001_Node000007" class="edge">
<title>Node1&#45;&gt;Node7</title>
<g id="a_edge7_Node000001_Node000007"><a xlink:title=" ">
<path fill="none" stroke="#63b8ff" d="M92.63,-125.38C111.26,-106.28 155.74,-63.3 201,-39 204.3,-37.23 207.74,-35.57 211.27,-34.01"/>
<polygon fill="#63b8ff" stroke="#63b8ff" points="212.83,-37.16 220.77,-30.14 210.19,-30.68 212.83,-37.16"/>
</a>
</g>
</g>
<!-- Node5&#45;&gt;Node3 -->
<g id="edge5_Node000005_Node000003" class="edge">
<title>Node5&#45;&gt;Node3</title>
<g id="a_edge5_Node000005_Node000003"><a xlink:title=" ">
<path fill="none" stroke="#63b8ff" d="M343.03,-126.05C359.71,-130.06 377.88,-134.43 395.06,-138.57"/>
<polygon fill="#63b8ff" stroke="#63b8ff" points="394.49,-142.03 405.03,-140.97 396.13,-135.22 394.49,-142.03"/>
</a>
</g>
</g>
</g>
</svg>
