<?xml version="1.0" encoding="UTF-8" standalone="no"?>
<!DOCTYPE svg PUBLIC "-//W3C//DTD SVG 1.1//EN"
 "http://www.w3.org/Graphics/SVG/1.1/DTD/svg11.dtd">
<!-- Generated by graphviz version 2.43.0 (0)
 -->
<!-- Title: ImuChartManager::handleChartMouseReleased Pages: 1 -->
<svg width="569pt" height="76pt"
 viewBox="0.00 0.00 569.00 75.50" xmlns="http://www.w3.org/2000/svg" xmlns:xlink="http://www.w3.org/1999/xlink">
<g id="graph0" class="graph" transform="scale(1 1) rotate(0) translate(4 71.5)">
<title>ImuChartManager::handleChartMouseReleased</title>
<!-- Node1 -->
<g id="Node000001" class="node">
<title>Node1</title>
<g id="a_Node000001"><a xlink:title="Wywoływane przy puszczeniu myszy na wykresie – blokuje zakres przewijania.">
<polygon fill="#999999" stroke="#666666" points="561,-45.5 391,-45.5 391,-15.5 561,-15.5 561,-45.5"/>
<text text-anchor="start" x="399" y="-33.5" font-family="Helvetica,sans-Serif" font-size="10.00">ImuChartManager::handleChart</text>
<text text-anchor="middle" x="476" y="-22.5" font-family="Helvetica,sans-Serif" font-size="10.00">MouseReleased</text>
</a>
</g>
</g>
<!-- Node2 -->
<g id="Node000002" class="node">
<title>Node2</title>
<g id="a_Node000002"><a xlink:href="classImuChartManager.html#af43ca7f8c5f2ab7db02c2fa72ee1a8fc" target="_top" xlink:title="Inicjalizuje (tworzy) wykres IMU i ustawia wszystkie parametry.">
<polygon fill="white" stroke="#666666" points="355,-40 191,-40 191,-21 355,-21 355,-40"/>
<text text-anchor="middle" x="273" y="-28" font-family="Helvetica,sans-Serif" font-size="10.00">ImuChartManager::setupChart</text>
</a>
</g>
</g>
<!-- Node1&#45;&gt;Node2 -->
<g id="edge1_Node000001_Node000002" class="edge">
<title>Node1&#45;&gt;Node2</title>
<g id="a_edge1_Node000001_Node000002"><a xlink:title=" ">
<path fill="none" stroke="#63b8ff" d="M380.88,-30.5C372.29,-30.5 363.63,-30.5 355.17,-30.5"/>
<polygon fill="#63b8ff" stroke="#63b8ff" points="380.92,-34 390.92,-30.5 380.92,-27 380.92,-34"/>
</a>
</g>
</g>
<!-- Node3 -->
<g id="Node000003" class="node">
<title>Node3</title>
<g id="a_Node000003"><a xlink:href="classImuChartManager.html#a0cbf6e4e9759f2b79c9162598bb7aa4b" target="_top" xlink:title="Konstruktor.">
<polygon fill="white" stroke="#666666" points="155,-67.5 0,-67.5 0,-37.5 155,-37.5 155,-67.5"/>
<text text-anchor="start" x="8" y="-55.5" font-family="Helvetica,sans-Serif" font-size="10.00">ImuChartManager::ImuChart</text>
<text text-anchor="middle" x="77.5" y="-44.5" font-family="Helvetica,sans-Serif" font-size="10.00">Manager</text>
</a>
</g>
</g>
<!-- Node2&#45;&gt;Node3 -->
<g id="edge2_Node000002_Node000003" class="edge">
<title>Node2&#45;&gt;Node3</title>
<g id="a_edge2_Node000002_Node000003"><a xlink:title=" ">
<path fill="none" stroke="#63b8ff" d="M180.77,-40.87C172.21,-41.85 163.59,-42.83 155.19,-43.78"/>
<polygon fill="#63b8ff" stroke="#63b8ff" points="181.24,-44.34 190.78,-39.73 180.45,-37.39 181.24,-44.34"/>
</a>
</g>
</g>
<!-- Node4 -->
<g id="Node000004" class="node">
<title>Node4</title>
<g id="a_Node000004"><a xlink:href="classMainWindow.html#a996c5a2b6f77944776856f08ec30858d" target="_top" xlink:title="Konstruktor klasy MainWindow.">
<polygon fill="white" stroke="#666666" points="151.5,-19 3.5,-19 3.5,0 151.5,0 151.5,-19"/>
<text text-anchor="middle" x="77.5" y="-7" font-family="Helvetica,sans-Serif" font-size="10.00">MainWindow::MainWindow</text>
</a>
</g>
</g>
<!-- Node2&#45;&gt;Node4 -->
<g id="edge3_Node000002_Node000004" class="edge">
<title>Node2&#45;&gt;Node4</title>
<g id="a_edge3_Node000002_Node000004"><a xlink:title=" ">
<path fill="none" stroke="#63b8ff" d="M180.64,-20.59C170.87,-19.52 161.02,-18.46 151.51,-17.42"/>
<polygon fill="#63b8ff" stroke="#63b8ff" points="180.46,-24.09 190.78,-21.69 181.22,-17.13 180.46,-24.09"/>
</a>
</g>
</g>
</g>
</svg>
