<?xml version="1.0" encoding="UTF-8" standalone="no"?>
<!DOCTYPE svg PUBLIC "-//W3C//DTD SVG 1.1//EN"
 "http://www.w3.org/Graphics/SVG/1.1/DTD/svg11.dtd">
<!-- Generated by graphviz version 2.43.0 (0)
 -->
<!-- Title: LineChartMenager::LineChartMenager Pages: 1 -->
<svg width="749pt" height="268pt"
 viewBox="0.00 0.00 749.00 268.00" xmlns="http://www.w3.org/2000/svg" xmlns:xlink="http://www.w3.org/1999/xlink">
<g id="graph0" class="graph" transform="scale(1 1) rotate(0) translate(4 264)">
<title>LineChartMenager::LineChartMenager</title>
<!-- Node1 -->
<g id="Node000001" class="node">
<title>Node1</title>
<g id="a_Node000001"><a xlink:title="Konstruktor.">
<polygon fill="#999999" stroke="#666666" points="158,-168 0,-168 0,-138 158,-138 158,-168"/>
<text text-anchor="start" x="8" y="-156" font-family="Helvetica,sans-Serif" font-size="10.00">LineChartMenager::LineChart</text>
<text text-anchor="middle" x="79" y="-145" font-family="Helvetica,sans-Serif" font-size="10.00">Menager</text>
</a>
</g>
</g>
<!-- Node2 -->
<g id="Node000002" class="node">
<title>Node2</title>
<g id="a_Node000002"><a xlink:href="classSensorData.html#a0ebd4e4804899960c3708d6ff6b4641e" target="_top" xlink:title="Sygnał emitowany przy zmianie dowolnych czujników linii.">
<polygon fill="white" stroke="#666666" points="363,-181.5 194,-181.5 194,-162.5 363,-162.5 363,-181.5"/>
<text text-anchor="middle" x="278.5" y="-169.5" font-family="Helvetica,sans-Serif" font-size="10.00">SensorData::lineSDataChanged</text>
</a>
</g>
</g>
<!-- Node1&#45;&gt;Node2 -->
<g id="edge1_Node000001_Node000002" class="edge">
<title>Node1&#45;&gt;Node2</title>
<g id="a_edge1_Node000001_Node000002"><a xlink:title=" ">
<path fill="none" stroke="#63b8ff" d="M158.06,-160.51C166.5,-161.32 175.16,-162.15 183.77,-162.98"/>
<polygon fill="#63b8ff" stroke="#63b8ff" points="183.55,-166.48 193.84,-163.95 184.22,-159.51 183.55,-166.48"/>
</a>
</g>
</g>
<!-- Node3 -->
<g id="Node000003" class="node">
<title>Node3</title>
<g id="a_Node000003"><a xlink:href="classLineChartMenager.html#af4ae0b8f7efd7713d2e1b3faabe96977" target="_top" xlink:title="Inicjalizuje (tworzy) wykres i ustawia wszystkie parametry.">
<polygon fill="white" stroke="#666666" points="361,-144.5 196,-144.5 196,-125.5 361,-125.5 361,-144.5"/>
<text text-anchor="middle" x="278.5" y="-132.5" font-family="Helvetica,sans-Serif" font-size="10.00">LineChartMenager::setupChart</text>
</a>
</g>
</g>
<!-- Node1&#45;&gt;Node3 -->
<g id="edge2_Node000001_Node000003" class="edge">
<title>Node1&#45;&gt;Node3</title>
<g id="a_edge2_Node000001_Node000003"><a xlink:title=" ">
<path fill="none" stroke="#63b8ff" d="M158.06,-145.89C167.16,-145.06 176.51,-144.2 185.78,-143.36"/>
<polygon fill="#63b8ff" stroke="#63b8ff" points="186.15,-146.84 195.79,-142.45 185.52,-139.87 186.15,-146.84"/>
</a>
</g>
</g>
<!-- Node4 -->
<g id="Node000004" class="node">
<title>Node4</title>
<g id="a_Node000004"><a xlink:href="classLineChartMenager.html#a71ff3e2215d7d10b9fd19877f9edfe94" target="_top" xlink:title="Dostosowuje liczbę etykiet osi X do rozmiaru wykresu.">
<polygon fill="white" stroke="#666666" points="548.5,-260 406.5,-260 406.5,-230 548.5,-230 548.5,-260"/>
<text text-anchor="start" x="414.5" y="-248" font-family="Helvetica,sans-Serif" font-size="10.00">LineChartMenager::adjust</text>
<text text-anchor="middle" x="477.5" y="-237" font-family="Helvetica,sans-Serif" font-size="10.00">AxisLabels</text>
</a>
</g>
</g>
<!-- Node3&#45;&gt;Node4 -->
<g id="edge3_Node000003_Node000004" class="edge">
<title>Node3&#45;&gt;Node4</title>
<g id="a_edge3_Node000003_Node000004"><a xlink:title=" ">
<path fill="none" stroke="#63b8ff" d="M345.61,-144.53C351.81,-147.02 357.73,-150.12 363,-154 388.67,-172.88 374.66,-195.44 399,-216 403.18,-219.53 407.84,-222.66 412.74,-225.42"/>
<polygon fill="#63b8ff" stroke="#63b8ff" points="411.26,-228.59 421.76,-230 414.43,-222.35 411.26,-228.59"/>
</a>
</g>
</g>
<!-- Node5 -->
<g id="Node000005" class="node">
<title>Node5</title>
<g id="a_Node000005"><a xlink:href="classLineChartMenager.html#a711bb6f8e8c0757c97cd52d45a0f49ad" target="_top" xlink:title="Wymusza przestrzeganie limitów osi X (brak przewijania poza [0, aktualny_czas]).">
<polygon fill="white" stroke="#666666" points="741,-171 592,-171 592,-141 741,-141 741,-171"/>
<text text-anchor="start" x="600" y="-159" font-family="Helvetica,sans-Serif" font-size="10.00">LineChartMenager::enforce</text>
<text text-anchor="middle" x="666.5" y="-148" font-family="Helvetica,sans-Serif" font-size="10.00">AxisLimits</text>
</a>
</g>
</g>
<!-- Node3&#45;&gt;Node5 -->
<g id="edge4_Node000003_Node000005" class="edge">
<title>Node3&#45;&gt;Node5</title>
<g id="a_edge4_Node000003_Node000005"><a xlink:title=" ">
<path fill="none" stroke="#63b8ff" d="M337.27,-144.52C346.12,-147 354.97,-150.11 363,-154 381.49,-162.95 379.62,-176.17 399,-183 470.43,-208.19 558.83,-190.4 613.71,-174.12"/>
<polygon fill="#63b8ff" stroke="#63b8ff" points="615.01,-177.38 623.55,-171.11 612.96,-170.69 615.01,-177.38"/>
</a>
</g>
</g>
<!-- Node6 -->
<g id="Node000006" class="node">
<title>Node6</title>
<g id="a_Node000006"><a xlink:href="classLineChartMenager.html#acbb2057099a3d9bf8cae41725122fc99" target="_top" xlink:title="Wywoływane przy kliknięciu/przesuwaniu wykresu – wyłącza auto&#45;scroll.">
<polygon fill="white" stroke="#666666" points="550,-174 405,-174 405,-144 550,-144 550,-174"/>
<text text-anchor="start" x="413" y="-162" font-family="Helvetica,sans-Serif" font-size="10.00">LineChartMenager::handle</text>
<text text-anchor="middle" x="477.5" y="-151" font-family="Helvetica,sans-Serif" font-size="10.00">ChartMousePressed</text>
</a>
</g>
</g>
<!-- Node3&#45;&gt;Node6 -->
<g id="edge5_Node000003_Node000006" class="edge">
<title>Node3&#45;&gt;Node6</title>
<g id="a_edge5_Node000003_Node000006"><a xlink:title=" ">
<path fill="none" stroke="#63b8ff" d="M357.64,-144.52C369.81,-146 382.41,-147.54 394.66,-149.03"/>
<polygon fill="#63b8ff" stroke="#63b8ff" points="394.5,-152.54 404.85,-150.27 395.35,-145.59 394.5,-152.54"/>
</a>
</g>
</g>
<!-- Node7 -->
<g id="Node000007" class="node">
<title>Node7</title>
<g id="a_Node000007"><a xlink:href="classLineChartMenager.html#aa940e9e26f3d2953abca44de085a0bf7" target="_top" xlink:title="Wywoływane przy puszczeniu myszy na wykresie – blokuje zakres przewijania.">
<polygon fill="white" stroke="#666666" points="550,-126 405,-126 405,-96 550,-96 550,-126"/>
<text text-anchor="start" x="413" y="-114" font-family="Helvetica,sans-Serif" font-size="10.00">LineChartMenager::handle</text>
<text text-anchor="middle" x="477.5" y="-103" font-family="Helvetica,sans-Serif" font-size="10.00">ChartMouseReleased</text>
</a>
</g>
</g>
<!-- Node3&#45;&gt;Node7 -->
<g id="edge6_Node000003_Node000007" class="edge">
<title>Node3&#45;&gt;Node7</title>
<g id="a_edge6_Node000003_Node000007"><a xlink:title=" ">
<path fill="none" stroke="#63b8ff" d="M357.64,-125.48C369.81,-124 382.41,-122.46 394.66,-120.97"/>
<polygon fill="#63b8ff" stroke="#63b8ff" points="395.35,-124.41 404.85,-119.73 394.5,-117.46 395.35,-124.41"/>
</a>
</g>
</g>
<!-- Node8 -->
<g id="Node000008" class="node">
<title>Node8</title>
<g id="a_Node000008"><a xlink:href="classHorizontalOnlyChartView.html#a5ef619d9b976147eb7fe9f83da3b6688" target="_top" xlink:title="Ustawia callback wywoływany przy naciśnięciu lewego przycisku myszy na wykresie.">
<polygon fill="white" stroke="#666666" points="552.5,-78 402.5,-78 402.5,-48 552.5,-48 552.5,-78"/>
<text text-anchor="start" x="410.5" y="-66" font-family="Helvetica,sans-Serif" font-size="10.00">HorizontalOnlyChartView</text>
<text text-anchor="middle" x="477.5" y="-55" font-family="Helvetica,sans-Serif" font-size="10.00">::setMousePressedCallback</text>
</a>
</g>
</g>
<!-- Node3&#45;&gt;Node8 -->
<g id="edge8_Node000003_Node000008" class="edge">
<title>Node3&#45;&gt;Node8</title>
<g id="a_edge8_Node000003_Node000008"><a xlink:title=" ">
<path fill="none" stroke="#63b8ff" d="M301.76,-125.43C325.6,-115.32 364.66,-99.19 399,-87 404.53,-85.04 410.31,-83.08 416.11,-81.17"/>
<polygon fill="#63b8ff" stroke="#63b8ff" points="417.42,-84.43 425.86,-78.03 415.27,-77.77 417.42,-84.43"/>
</a>
</g>
</g>
<!-- Node9 -->
<g id="Node000009" class="node">
<title>Node9</title>
<g id="a_Node000009"><a xlink:href="classHorizontalOnlyChartView.html#a12bd31146864d4ca20b2da4544f6c2bf" target="_top" xlink:title="Ustawia callback wywoływany przy puszczeniu lewego przycisku myszy na wykresie.">
<polygon fill="white" stroke="#666666" points="556,-30 399,-30 399,0 556,0 556,-30"/>
<text text-anchor="start" x="407" y="-18" font-family="Helvetica,sans-Serif" font-size="10.00">HorizontalOnlyChartView</text>
<text text-anchor="middle" x="477.5" y="-7" font-family="Helvetica,sans-Serif" font-size="10.00">::setMouseReleasedCallback</text>
</a>
</g>
</g>
<!-- Node3&#45;&gt;Node9 -->
<g id="edge9_Node000003_Node000009" class="edge">
<title>Node3&#45;&gt;Node9</title>
<g id="a_edge9_Node000003_Node000009"><a xlink:title=" ">
<path fill="none" stroke="#63b8ff" d="M288.82,-125.39C307.83,-106.31 353.18,-63.36 399,-39 402.47,-37.16 406.1,-35.43 409.82,-33.82"/>
<polygon fill="#63b8ff" stroke="#63b8ff" points="411.24,-37.02 419.2,-30.04 408.62,-30.53 411.24,-37.02"/>
</a>
</g>
</g>
<!-- Node7&#45;&gt;Node5 -->
<g id="edge7_Node000007_Node000005" class="edge">
<title>Node7&#45;&gt;Node5</title>
<g id="a_edge7_Node000007_Node000005"><a xlink:title=" ">
<path fill="none" stroke="#63b8ff" d="M541.03,-126.05C557.71,-130.06 575.88,-134.43 593.06,-138.57"/>
<polygon fill="#63b8ff" stroke="#63b8ff" points="592.49,-142.03 603.03,-140.97 594.13,-135.22 592.49,-142.03"/>
</a>
</g>
</g>
</g>
</svg>
